<svg xmlns="http://www.w3.org/2000/svg" xmlns:xlink="http://www.w3.org/1999/xlink" width="324.319" height="536.371" viewBox="0 0 324.319 536.371"><defs><style>.a{fill:#193c46;}.b{fill:none;}.c,.d{stroke:none;}.d{fill:#fff;}.e{filter:url(#a);}</style><filter id="a" x="0" y="9.621" width="324.319" height="526.75" filterUnits="userSpaceOnUse"><feOffset dy="6" input="SourceAlpha"/><feGaussianBlur stdDeviation="1.5" result="b"/><feFlood flood-opacity="0.161"/><feComposite operator="in" in2="b"/><feComposite in="SourceGraphic"/></filter></defs><g transform="translate(4.5 -3)"><g class="e" transform="matrix(1, 0, 0, 1, -4.5, 3)"><path class="a" d="M0,0H516.25L478.525,165.2,516.25,315.319H0Z" transform="translate(319.82 9.62) rotate(90)"/></g><g class="b" transform="translate(308.914 3) rotate(90)"><path class="c" d="M0,0H518.789L480.878,158.765,518.789,303.03H0Z"/><path class="d" d="M 3 2.999969482421875 L 3 300.0299072265625 L 514.8985595703125 300.0299072265625 L 477.9761657714844 159.5276947021484 L 477.7849731445313 158.8001708984375 L 477.959716796875 158.0684356689453 L 514.9880981445313 2.999969482421875 L 3 2.999969482421875 M 0 -3.0517578125e-05 L 518.7887573242188 -3.0517578125e-05 L 480.8776550292969 158.7652282714844 L 518.7887573242188 303.0299072265625 L 0 303.0299072265625 L 0 -3.0517578125e-05 Z"/></g></g></svg>