<svg width="20" height="15.998" viewBox="0 0 20 15.998" version="1.1"><path d="M8.716 15.982l-1.906-.553a.376.376 0 0 1-.257-.466L10.819.271a.376.376 0 0 1 .466-.256l1.905.548a.376.376 0 0 1 .256.466L9.181 15.726a.374.374 0 0 1-.465.256zm-3.562-3.506l1.359-1.45a.375.375 0 0 0-.025-.537L3.657 7.998l2.831-2.49a.372.372 0 0 0 .025-.537l-1.359-1.45a.375.375 0 0 0-.529-.016L.12 7.723a.372.372 0 0 0 0 .547l4.5 4.222a.373.373 0 0 0 .531-.016zm10.224.019l4.5-4.222a.372.372 0 0 0 0-.547l-4.5-4.225a.378.378 0 0 0-.531.016l-1.36 1.446a.375.375 0 0 0 .025.537l2.831 2.494-2.831 2.49a.372.372 0 0 0-.025.537l1.359 1.45a.375.375 0 0 0 .531.019z"/></svg>