<svg width="20" height="15" viewBox="0 0 20 15" version="1.1"><path d="M19.621 4.953a.235.235 0 0 1 .379.184v7.988A1.875 1.875 0 0 1 18.125 15H1.875A1.875 1.875 0 0 1 0 13.125V5.141a.234.234 0 0 1 .379-.184c.875.68 2.035 1.543 6.02 4.438.824.6 2.215 1.867 3.6 1.859 1.395.012 2.813-1.281 3.605-1.859 3.986-2.895 5.142-3.762 6.017-4.442zM10 10c.906.016 2.211-1.141 2.867-1.617 5.184-3.762 5.578-4.09 6.773-5.027a.935.935 0 0 0 .36-.739v-.742A1.875 1.875 0 0 0 18.125 0H1.875A1.875 1.875 0 0 0 0 1.875v.742a.94.94 0 0 0 .359.738c1.2.934 1.59 1.266 6.773 5.027C7.789 8.859 9.094 10.016 10 10z"/></svg>