<svg width="20" height="9.999" viewBox="0 0 20 9.999" version="1.1"><path d="M15.002 0h-10a5 5 0 1 0 3.57 8.5h2.86a5 5 0 1 0 3.57-8.5zM7.751 5.374a.375.375 0 0 1-.375.375H5.751v1.625a.375.375 0 0 1-.375.375h-.75a.375.375 0 0 1-.375-.375V5.749H2.626a.375.375 0 0 1-.375-.375v-.75a.375.375 0 0 1 .375-.375h1.625V2.625a.375.375 0 0 1 .375-.375h.75a.375.375 0 0 1 .375.375V4.25h1.625a.375.375 0 0 1 .375.375zM14.5 7.749a1.25 1.25 0 1 1 1.25-1.25 1.25 1.25 0 0 1-1.25 1.25zm2-3a1.25 1.25 0 1 1 1.25-1.25 1.25 1.25 0 0 1-1.25 1.25z"/></svg>