<svg width="877.101" height="797.381" viewBox="0 0 877.101 797.381"><defs><style>.cls-1{fill:#a07c5a}.cls-2{fill:#e4e2c5}.cls-7{fill:#193c46}</style><filter id="Path_287" width="827.052" height="349.873" x="50.049" y="447.508" filterUnits="userSpaceOnUse"><feOffset dx="9" dy="9"/><feGaussianBlur result="blur" stdDeviation="2"/><feFlood flood-opacity=".161"/><feComposite in2="blur" operator="in"/><feComposite in="SourceGraphic"/></filter><filter id="Path_289" width="368.185" height="414.604" x="508.915" y="277.564" filterUnits="userSpaceOnUse"><feOffset dx="9" dy="9"/><feGaussianBlur result="blur-2" stdDeviation="2"/><feFlood flood-opacity=".161"/><feComposite in2="blur-2" operator="in"/><feComposite in="SourceGraphic"/></filter></defs><g id="envelope" transform="rotate(-12.04 18.358 374.846)"><g id="Plic"><g id="Group_39"><path id="Path_286" d="M54.637 20.413v122.839l-2.845 1.911h.014L136.7 87.976v-.012z" class="cls-1" transform="translate(656.565 352.651)"/><g id="Group_14" transform="translate(87.435 139.979)"><path id="Path_275" d="M647.4 232.655L387.332 18.926c-30.722-25.233-78.313-25.233-109.035 0L18.259 232.655z" class="cls-1" transform="translate(-18.259 -.001)"/></g><path id="Path_285" d="M83.525 144.123l-1.463-.991V20.413L0 87.9v.012z" class="cls-1" transform="translate(0 352.651)"/><path id="Path_276" d="M657.98 9H6v232.794l212.6 123.341h226.778l212.6-123.341z" class="cls-2" transform="translate(69.586 310.547)"/><g filter="url(#Path_287)" transform="rotate(11.5 14.793 371.83)"><path id="Path_287-2" fill="#cead8f" d="M0 215.741h793.264L506.048 42H287.216z" transform="rotate(-11.5 2714.83 61.793)"/></g><path id="Path_288" fill="#b78d66" d="M0 373.482V26l287.216 173.741z" transform="translate(0 414.044)"/><g filter="url(#Path_289)" transform="rotate(11.5 14.793 371.83)"><path id="Path_289-2" fill="#c2966d" d="M324.216 373.482V26L37 199.741z" transform="rotate(-11.5 1717.973 -2061.717)"/></g><g id="Path_290" fill="#cead8f"><path d="M.482 17.484L-.033 2.878 322.856.606l-10.87 6.553L.481 17.484z" transform="rotate(31.57 -833.073 1221.538)"/><path d="M321.037 1.118L.485 3.374l.48 13.594L311.838 6.664l9.198-5.546m3.638-1.025l-12.543 7.562L0 18-.55 2.382 324.674.092z" transform="rotate(31.57 -833.073 1221.538)"/></g></g><g id="Official_seal" transform="translate(514.586 589.446)"><path id="Path_291" d="M87.35 84.51l-.49 3.13-1.72-.27.5-3.13z" class="cls-7" transform="translate(-10.17 -12.8)"/><path id="Path_292" d="M85.29 81.32a8.57 8.57 0 0 1-3.06-1.42A4.15 4.15 0 0 1 81 78.17a4 4 0 0 1 .82-3.63 4.1 4.1 0 0 1 3.08-1.14 10.45 10.45 0 0 1 2.52.48c2.08.62 3.42 1.39 4 2.32a3.56 3.56 0 0 1 .4 3 3.44 3.44 0 0 1-2 2.32c-1.04.48-2.55.38-4.53-.2zm.07-2.55L86 79a13 13 0 0 0 2.19.53 1.45 1.45 0 0 0 1-.22 1.29 1.29 0 0 0 .55-.75 1.15 1.15 0 0 0-.08-.81 1.71 1.71 0 0 0-.75-.73 11 11 0 0 0-2.07-.75 12.16 12.16 0 0 0-2-.47 2 2 0 0 0-1.07.18 1.19 1.19 0 0 0-.6.72 1.11 1.11 0 0 0 .31 1.21 4.76 4.76 0 0 0 1.88.86z" class="cls-7" transform="translate(-10.17 -12.8)"/><path id="Path_293" d="M88.07 64.76l-1.16 2.47 2 .93 1-2.12 1.81.85-1 2.12 4 1.9-1 2.1L84 68.43l2.15-4.57z" class="cls-7" transform="translate(-10.17 -12.8)"/><path id="Path_294" d="M92.6 57.29l-1.46 2.3L93 60.78l1.26-2 1.69 1.08-1.26 2 3.77 2.41-1.25 2-9.09-5.81 2.72-4.25z" class="cls-7" transform="translate(-10.17 -12.8)"/><path id="Path_295" d="M93.28 53l1.47-1.81 8.37 6.81-1.48 1.81z" class="cls-7" transform="translate(-10.17 -12.8)"/><path id="Path_296" d="M109.65 51.1a4.91 4.91 0 0 1-1.17 1.65 4.24 4.24 0 0 1-3.34 1.25 5.91 5.91 0 0 1-3.82-2.1 6.13 6.13 0 0 1-2-4 3.94 3.94 0 0 1 1.21-3.11 5.3 5.3 0 0 1 2-1.14l1.56 1.64a6.49 6.49 0 0 0-1.22.44 2.18 2.18 0 0 0-.47.36 2.14 2.14 0 0 0-.64 1.66 3.91 3.91 0 0 0 1.31 2.37 4.1 4.1 0 0 0 2.34 1.49 2.14 2.14 0 0 0 1.72-.61 3.17 3.17 0 0 0 .83-1.68z" class="cls-7" transform="translate(-10.17 -12.8)"/><path id="Path_297" d="M105.52 40.93l1.88-1.39 6.41 8.68-1.88 1.39z" class="cls-7" transform="translate(-10.17 -12.8)"/><path id="Path_298" d="M123 42.78l-2 1.09-1.12-1.3-2.49 1.36.46 1.67-2 1.1-2.48-11 2.08-1.14zm-4.26-1.58l-3.1-3.69 1.3 4.67z" class="cls-7" transform="translate(-10.17 -12.8)"/><path id="Path_299" d="M129.85 40.19l-4.7 1.81-3.91-10 2.16-.84 3.14 8.08 2.55-1z" class="cls-7" transform="translate(-10.17 -12.8)"/><path id="Path_300" d="M144.45 37.56l-2.44.29-3.52-6.45.79 6.76-2.25.26-1.29-10.72 2.54-.3 3.46 6.35-.74-6.67 2.2-.25z" class="cls-7" transform="translate(-10.17 -12.8)"/><path id="Path_301" d="M147.44 32.06a8.32 8.32 0 0 1 .69-3.29 4.25 4.25 0 0 1 1.41-1.57 3.571 3.571 0 0 1 4.84 1.07 4.16 4.16 0 0 1 .69 1.66 10.6 10.6 0 0 1 .09 2.56c-.13 2.17-.59 3.64-1.36 4.42a3.55 3.55 0 0 1-2.87 1.09 3.44 3.44 0 0 1-2.72-1.45 7.279 7.279 0 0 1-.77-4.49zm2.5-.5l-.05.69a12.839 12.839 0 0 0 0 2.25 1.44 1.44 0 0 0 .42.87 1.28 1.28 0 0 0 .86.37 1.12 1.12 0 0 0 .78-.26 1.66 1.66 0 0 0 .54-.88 11.261 11.261 0 0 0 .27-2.19 12.179 12.179 0 0 0 0-2 1.85 1.85 0 0 0-.41-1 1.19 1.19 0 0 0-.84-.43 1.12 1.12 0 0 0-1.11.58 4.74 4.74 0 0 0-.46 2z" class="cls-7" transform="translate(-10.17 -12.8)"/><path id="Path_302" d="M165 31.23l-2-.45-1.88 8.5-2.28-.51 1.87-8.48-2.09-.46.46-2.06 6.42 1.42z" class="cls-7" transform="translate(-10.17 -12.8)"/><path id="Path_303" d="M169.14 30.4l2.2.78-3.58 10.18-2.2-.78z" class="cls-7" transform="translate(-10.17 -12.8)"/><path id="Path_304" d="M176.45 45.18a4.93 4.93 0 0 1-1.95-.54 4.26 4.26 0 0 1-2.28-2.73 6 6 0 0 1 .69-4.3 6.1 6.1 0 0 1 3.09-3.22 4 4 0 0 1 3.34.08 5.34 5.34 0 0 1 1.66 1.47l-1 2a6.67 6.67 0 0 0-.83-1 2.569 2.569 0 0 0-.49-.31 2.08 2.08 0 0 0-1.78 0 3.94 3.94 0 0 0-1.79 2 4.13 4.13 0 0 0-.6 2.71 2.13 2.13 0 0 0 1.15 1.41 3.23 3.23 0 0 0 1.86.21z" class="cls-7" transform="translate(-10.17 -12.8)"/><path id="Path_305" d="M182.85 49.71l-4.42-3.07 6.14-8.87 4.15 2.87-1.19 1.71-2.24-1.55-1.29 1.8 2 1.34-1.14 1.64-1.92-1.33-1.36 2 2.48 1.75z" class="cls-7" transform="translate(-10.17 -12.8)"/><path id="Path_306" d="M188.73 51l-2.38-2.08 1.14-1.31 2.38 2.09z" class="cls-7" transform="translate(-10.17 -12.8)"/><path id="Path_307" d="M106 147.67l-2.43-2 1.12-1.33 2.43 2z" class="cls-7" transform="translate(-10.17 -12.8)"/><path id="Path_308" d="M109.75 147.39a8.49 8.49 0 0 1 2.21-2.54 4.18 4.18 0 0 1 2-.69 3.47 3.47 0 0 1 2.05.62 3.42 3.42 0 0 1 1.21 1.18 3.9 3.9 0 0 1 .45 1.47 4.15 4.15 0 0 1-.2 1.78 10.68 10.68 0 0 1-1.16 2.29c-1.17 1.83-2.29 2.9-3.34 3.21a3.57 3.57 0 0 1-3-.47 3.42 3.42 0 0 1-1.67-2.59c-.16-1.1.34-2.51 1.45-4.26zm2.43.78l-.37.58a13.07 13.07 0 0 0-1.11 1.95 1.49 1.49 0 0 0-.06 1 1.39 1.39 0 0 0 .57.74 1.12 1.12 0 0 0 .81.15 1.61 1.61 0 0 0 .9-.51 11.909 11.909 0 0 0 1.3-1.78 12.108 12.108 0 0 0 1-1.76 2 2 0 0 0 .13-1.08 1.18 1.18 0 0 0-.53-.77 1.12 1.12 0 0 0-1.25 0 4.62 4.62 0 0 0-1.39 1.48z" class="cls-7" transform="translate(-10.17 -12.8)"/><path id="Path_309" d="M125.19 152.13L122.7 151l-.9 2 2.14.95-.82 1.83-2.14-.95-1.83 4.08L117 158l4.41-9.85 4.6 2.06z" class="cls-7" transform="translate(-10.17 -12.8)"/><path id="Path_310" d="M132.6 154.5l-2.62-.79-.63 2.11 2.24.68-.58 1.92-2.24-.68-1.3 4.29-2.22-.67 3.12-10.36 4.84 1.45z" class="cls-7" transform="translate(-10.17 -12.8)"/><path id="Path_311" d="M135.85 153l2.29.42-1.93 10.62-2.3-.42z" class="cls-7" transform="translate(-10.17 -12.8)"/><path id="Path_312" d="M146.88 164.85a4.86 4.86 0 0 1-2 .28 4.24 4.24 0 0 1-3.17-1.61 6 6 0 0 1-1.08-4.23 6.08 6.08 0 0 1 1.54-4.15 4 4 0 0 1 3.1-1.25 5.38 5.38 0 0 1 2.18.66l-.13 2.26a7.151 7.151 0 0 0-1.16-.59 2.61 2.61 0 0 0-.57-.1 2.12 2.12 0 0 0-1.65.67 3.89 3.89 0 0 0-.84 2.58 4.09 4.09 0 0 0 .51 2.72 2.17 2.17 0 0 0 1.62.84 3.19 3.19 0 0 0 1.79-.54z" class="cls-7" transform="translate(-10.17 -12.8)"/><path id="Path_313" d="M150.09 154.08l2.33-.15.72 10.77-2.33.15z" class="cls-7" transform="translate(-10.17 -12.8)"/><path id="Path_314" d="M165 162.75l-2.23.45-.69-1.58-2.79.56-.05 1.73-2.24.45.9-11.19 2.32-.46zm-3.61-2.75l-1.86-4.44-.14 4.85z" class="cls-7" transform="translate(-10.17 -12.8)"/><path id="Path_315" d="M173.24 159.94l-4.76 1.68-3.58-10.19 2.19-.76 2.87 8.17 2.57-.9z" class="cls-7" transform="translate(-10.17 -12.8)"/><path id="Path_316" d="M188.27 151.63L186.2 153l-6-4.21 3.71 5.71-1.9 1.23-5.89-9.07 2.14-1.39 5.92 4.16-3.65-5.62 1.85-1.21z" class="cls-7" transform="translate(-10.17 -12.8)"/><path id="Path_317" d="M188 144.94a8.48 8.48 0 0 1-1.92-2.77 4.15 4.15 0 0 1-.16-2.1 3.48 3.48 0 0 1 1.1-1.84 3.64 3.64 0 0 1 1.45-.88 4.08 4.08 0 0 1 3.21.57 10.48 10.48 0 0 1 1.93 1.7c1.48 1.59 2.24 2.94 2.27 4a3.53 3.53 0 0 1-1.21 2.82 3.41 3.41 0 0 1-2.92 1q-1.64-.23-3.75-2.5zm1.35-2.15l.47.5a14.07 14.07 0 0 0 1.61 1.56 1.4 1.4 0 0 0 .93.3 1.31 1.31 0 0 0 .86-.37 1.13 1.13 0 0 0 .35-.74 1.63 1.63 0 0 0-.28-1 11.271 11.271 0 0 0-1.39-1.71 12.37 12.37 0 0 0-1.46-1.39 1.91 1.91 0 0 0-1-.39 1.16 1.16 0 0 0-.89.31 1.13 1.13 0 0 0-.34 1.21 4.73 4.73 0 0 0 1.13 1.72z" class="cls-7" transform="translate(-10.17 -12.8)"/><path id="Path_318" d="M196.87 130.55l-1.3 1.65 6.83 5.39-1.4 1.83-6.86-5.42-1.33 1.69-1.65-1.31 4.07-5.16z" class="cls-7" transform="translate(-10.17 -12.8)"/><path id="Path_319" d="M196.55 127.11l1.21-2 9.21 5.63-1.21 2z" class="cls-7" transform="translate(-10.17 -12.8)"/><path id="Path_320" d="M211.56 121.11a4.92 4.92 0 0 1-.46 2 4.28 4.28 0 0 1-2.65 2.38 6 6 0 0 1-4.33-.53 6.13 6.13 0 0 1-3.32-2.96 4 4 0 0 1 0-3.34 5.35 5.35 0 0 1 1.41-1.79l2.06.94a7 7 0 0 0-1 .86 2.721 2.721 0 0 0-.29.5 2.09 2.09 0 0 0 0 1.78 3.92 3.92 0 0 0 2.1 1.72 4.13 4.13 0 0 0 2.73.5 2.16 2.16 0 0 0 1.37-1.2 3.21 3.21 0 0 0 .14-1.86z" class="cls-7" transform="translate(-10.17 -12.8)"/><path id="Path_321" d="M214.51 112.43l-1.51 5.16-10.35-3.07 1.43-4.84 2 .6-.77 2.61 2.1.63.67-2.25 1.92.57-.67 2.25 2.29.67.87-2.94z" class="cls-7" transform="translate(-10.17 -12.8)"/><path id="Path_322" d="M212.91 105.65l-.56 3.11-1.71-.31.56-3.11z" class="cls-7" transform="translate(-10.17 -12.8)"/><path id="Path_323" d="M111.51 131.19a50.38 50.38 0 0 0 86-31.81l-1.51.56-83 30.69z" class="cls-7" transform="translate(-10.17 -12.8)"/><path id="Path_324" d="M186 55.6a55.77 55.77 0 0 0-94.22 34.84l2.78-1a53.09 53.09 0 0 1 88.66-32.79z" class="cls-7" transform="translate(-10.17 -12.8)"/><path id="Path_325" d="M120.42 23.07a77.49 77.49 0 0 1 87.49 24.43l5.36-2a82.92 82.92 0 0 0-148.76 55l5.36-2a77.48 77.48 0 0 1 50.55-75.43z" class="cls-7" transform="translate(-10.17 -12.8)"/><path id="Path_326" d="M180.34 57.69a50.38 50.38 0 0 0-82.9 30.66l1.56-.59 79.72-29.48z" class="cls-7" transform="translate(-10.17 -12.8)"/><path id="Path_327" d="M172.86 164.87a73.76 73.76 0 0 0 48-74.12l-1.57.58a72.15 72.15 0 0 1-129.54 47.91l-1.58.58a73.78 73.78 0 0 0 84.69 25.05z" class="cls-7" transform="translate(-10.17 -12.8)"/><path id="Path_328" d="M224.49 89.41a77.47 77.47 0 0 1-139.94 51.75l-5.29 2a82.92 82.92 0 0 0 150.52-55.71z" class="cls-7" transform="translate(-10.17 -12.8)"/><path id="Path_329" d="M166.61 148A55.74 55.74 0 0 0 203 97.36l-2.67 1a53.11 53.11 0 0 1-91.61 33.88l-2.66 1A55.73 55.73 0 0 0 166.61 148z" class="cls-7" transform="translate(-10.17 -12.8)"/><path id="Path_330" d="M204.23 48.86A73.75 73.75 0 0 0 73.54 97.19l1.6-.59a72.15 72.15 0 0 1 127.49-47.15z" class="cls-7" transform="translate(-10.17 -12.8)"/><path id="Path_331" d="M179.58 74.62c-.73-1.19-1.19-2-1.41-2.41.2.94.39 2 .58 3.13s.55 3.78 1.09 7.91l4.28-1.58-3.12-4.82c-.23-.29-.69-1.04-1.42-2.23zm-83.51 28.43a3.32 3.32 0 0 0-2.15 3.09 15 15 0 0 0 1.21 6.27 14.92 14.92 0 0 0 3.15 5.59 3.31 3.31 0 0 0 3.62 1q3.81-1.41.87-9.34t-6.7-6.61zm132.55-58.91L50.73 109.93l17.36 13.47-4.53 21.23 177.89-65.79-17.26-13.17zM108.18 117.4a8 8 0 0 1-12.05 4.47q-3.22-2.24-5.32-7.9c-1.39-3.74-1.74-6.88-1.08-9.39a7.4 7.4 0 0 1 5-5.24 7.29 7.29 0 0 1 7.12.79q3.21 2.24 5.28 7.86t1.05 9.41zm10.32-22.33l-6 2.21 2.32 6.28 5.56-2 1.35 3.64-5.56 2 3.35 9.08-4.18 1.54L107 95.19l10.14-3.75zM132.27 90l-6 2.21 2.32 6.28 5.56-2 1.34 3.64-5.55 2 3.35 9.07-4.18 1.55-8.37-22.64 10.14-3.75zm15.37 15.91l-4 1.47-8.34-22.66 4-1.46zm12-8.3a8 8 0 0 0 3.36-2.56l1.39 3.75a8.12 8.12 0 0 1-3.84 2.67 7.12 7.12 0 0 1-7-.87c-2.12-1.53-3.86-4.12-5.22-7.8s-1.71-6.8-1.06-9.37a7.19 7.19 0 0 1 4.73-5.26 9.17 9.17 0 0 1 2.5-.54 10.56 10.56 0 0 1 2.88.29l-.13 3.94a12.89 12.89 0 0 0-1.81-.32 4 4 0 0 0-1.86.24c-1.21.44-1.9 1.5-2.08 3.18a14.56 14.56 0 0 0 1.14 6.28q2.93 7.86 7.03 6.35zm13.74-1.23l-4 1.47-8.37-22.64 4-1.46zm16.29-6l-3.41-5.23-5.9 2.18.81 6.19L177 95l-2.8-24.8 5.71-2.12 14 20.65zM206.76 84l-10 3.71-8.38-22.63 4.22-1.56 7 19 5.84-2.16z" class="cls-7" transform="translate(-10.17 -12.8)"/></g><g id="paper_mark" transform="translate(598.596 333.457)"><g id="objects" transform="translate(-.01 -.01)"><g id="color"><path id="Path_373" d="M94.1 87.317a17.469 17.469 0 0 1-10.538-3.266 15.873 15.873 0 0 0-18.136 0A17.529 17.529 0 0 1 54.9 87.317a17.519 17.519 0 0 1-10.53-3.266 14.988 14.988 0 0 0-9.07-2.845V78.44a17.5 17.5 0 0 1 10.53 3.26 14.936 14.936 0 0 0 9.07 2.844 14.843 14.843 0 0 0 9.067-2.844 18.658 18.658 0 0 1 21.069 0 15.873 15.873 0 0 0 18.136 0 17.532 17.532 0 0 1 10.528-3.26v2.766a14.9 14.9 0 0 0-9.068 2.845A17.328 17.328 0 0 1 94.1 87.317z" class="cls-7" transform="translate(-7.237 -16.091)"/><path id="Path_374" d="M94.1 77.017a17.469 17.469 0 0 1-10.538-3.266 15.91 15.91 0 0 0-18.136 0A17.529 17.529 0 0 1 54.9 77.017a17.519 17.519 0 0 1-10.53-3.266 14.989 14.989 0 0 0-9.07-2.837V68.14a17.442 17.442 0 0 1 10.53 3.266 14.988 14.988 0 0 0 9.07 2.846 14.9 14.9 0 0 0 9.068-2.845 18.62 18.62 0 0 1 21.069 0 15.873 15.873 0 0 0 18.136 0A17.529 17.529 0 0 1 113.7 68.14v2.774a14.9 14.9 0 0 0-9.068 2.837A17.328 17.328 0 0 1 94.1 77.017z" class="cls-7" transform="translate(-7.237 -13.977)"/><path id="Path_375" d="M94.112 66.712a17.471 17.471 0 0 1-10.538-3.258 15.873 15.873 0 0 0-18.136 0 17.285 17.285 0 0 1-10.5 3.258 17.521 17.521 0 0 1-10.531-3.258 14.988 14.988 0 0 0-9.068-2.845V57.85a17.444 17.444 0 0 1 10.531 3.258 14.988 14.988 0 0 0 9.068 2.845 15.059 15.059 0 0 0 9.036-2.805 18.658 18.658 0 0 1 21.069 0 15.873 15.873 0 0 0 18.136 0 17.532 17.532 0 0 1 10.531-3.258v2.766a14.9 14.9 0 0 0-9.068 2.845 17.614 17.614 0 0 1-10.53 3.211z" class="cls-7" transform="translate(-7.245 -11.865)"/><path id="Path_376" d="M94.1 56.427a17.469 17.469 0 0 1-10.538-3.266 15.873 15.873 0 0 0-18.136 0A17.529 17.529 0 0 1 54.9 56.427a17.442 17.442 0 0 1-10.531-3.266 14.836 14.836 0 0 0-9.069-2.869V47.55a17.5 17.5 0 0 1 10.53 3.258 14.988 14.988 0 0 0 9.07 2.846 14.9 14.9 0 0 0 9.068-2.845 18.658 18.658 0 0 1 21.069 0 15.873 15.873 0 0 0 18.136 0A17.532 17.532 0 0 1 113.7 47.55v2.742a14.9 14.9 0 0 0-9.068 2.845 17.166 17.166 0 0 1-10.532 3.29z" class="cls-7" transform="translate(-7.237 -9.751)"/><path id="Path_377" d="M94.1 46.127a17.469 17.469 0 0 1-10.538-3.266 15.91 15.91 0 0 0-18.136 0A17.529 17.529 0 0 1 54.9 46.127a17.442 17.442 0 0 1-10.531-3.266 14.989 14.989 0 0 0-9.069-2.837V37.25a17.442 17.442 0 0 1 10.53 3.266 14.988 14.988 0 0 0 9.07 2.846 14.9 14.9 0 0 0 9.068-2.845 18.62 18.62 0 0 1 21.069 0 15.873 15.873 0 0 0 18.136 0A17.529 17.529 0 0 1 113.7 37.25v2.774a14.9 14.9 0 0 0-9.068 2.837A17.328 17.328 0 0 1 94.1 46.127z" class="cls-7" transform="translate(-7.237 -7.637)"/><path id="Path_378" d="M34.037 68.069a34.039 34.039 0 1 1 34.032-34.034 34.041 34.041 0 0 1-34.032 34.034zm0-64.749a30.717 30.717 0 1 0 30.71 30.715A30.717 30.717 0 0 0 34.037 3.32z" class="cls-7" transform="translate(.01 .01)"/><path id="Path_379" d="M36.783 60.2A23.413 23.413 0 1 1 60.2 36.783 23.413 23.413 0 0 1 36.783 60.2zm0-45.222a21.808 21.808 0 1 0 21.809 21.805 21.808 21.808 0 0 0-21.809-21.808z" class="cls-7" transform="translate(-2.736 -2.736)"/></g><g id="zgarieturi" transform="translate(2.178 .111)"><path id="Path_380" d="M23.463 8.31a.986.986 0 0 0 0 .882c.032-.246.278-.739 0-.882z" class="cls-2" transform="translate(-6.964 -1.809)"/><path id="Path_381" d="M23.94 6c-.087 0-.215 0-.23.079a.362.362 0 0 0 .223.31c.067-.119.007-.166.007-.389z" class="cls-2" transform="translate(-7.036 -1.335)"/><path id="Path_382" d="M24.28 20.913c0-.175.159-.246.127-.525a.35.35 0 0 1-.167-.2l-.27.23c.143.122.079.519.31.495z" class="cls-2" transform="translate(-7.089 -4.247)"/><path id="Path_383" d="M21.147 9.307a.707.707 0 0 0 .064.437h.183c.023-.302-.024-.501-.247-.437z" class="cls-2" transform="translate(-6.508 -2.011)"/><path id="Path_384" d="M22.535 6.43c-.079.111-.1.429.064.437.079-.111.095-.429-.064-.437z" class="cls-2" transform="translate(-6.783 -1.423)"/><path id="Path_385" d="M29.668 16.9a.691.691 0 0 0 .072.437h.191c-.001-.278-.089-.421-.263-.437z" class="cls-2" transform="translate(-8.257 -3.572)"/><path id="Path_386" d="M60.452 20.16c-.3 0-.453.477-.413.858l.35.278a2.384 2.384 0 0 0 .063-1.136z" class="cls-2" transform="translate(-14.491 -4.241)"/><path id="Path_388" d="M59.934 19.186c0-.278-.056-.4-.254-.358-.016.39.063.493.254.358z" class="cls-2" transform="translate(-14.418 -3.966)"/><path id="Path_389" d="M62.315 22.962a.4.4 0 0 0 .135 0c-.087-.421.143-.421.23-.628-.175-.159-.119-.628-.23-.858h-.087a.27.27 0 0 0-.318-.119 1.113 1.113 0 0 0 0 .23.366.366 0 0 1-.175-.056 1.4 1.4 0 0 0-.064.93z" class="cls-2" transform="translate(-14.845 -4.484)"/><path id="Path_390" d="M63.649 24.1v-.53c-.262 0-.318.254-.429.445v.056l.072.079c.108.032.214-.04.357-.05z" class="cls-2" transform="translate(-15.145 -4.941)"/><path id="Path_391" d="M69.607 14.171c-.159-.143-.318-.056-.477.064l.143.135a3.362 3.362 0 0 0 .334-.2z" class="cls-2" transform="translate(-16.358 -2.997)"/><path id="Path_392" d="M65.17 26.44v.048l.31.413a.8.8 0 0 0-.048-.461z" class="cls-2" transform="translate(-15.546 -5.53)"/><path id="Path_393" d="M66.427 25.332a.246.246 0 0 0 0 .183.151.151 0 0 0 .278 0 .127.127 0 0 0 .1-.048v-.119l-.3-.35a.405.405 0 0 0-.167 0 .532.532 0 0 0 .087.334z" class="cls-2" transform="translate(-15.785 -5.232)"/><path id="Path_394" d="M38.074 3.64c-.048.1-.246.413-.064.54-.023-.143.207-.461.064-.54z" class="cls-2" transform="translate(-9.956 -.85)"/><path id="Path_395" d="M26.3 19.78a2.464 2.464 0 0 1-.056 1.136h.056l.35-.27a2.591 2.591 0 0 0-.35-.866z" class="cls-2" transform="translate(-7.555 -4.163)"/><path id="Path_396" d="M25.207 21.21a1.16 1.16 0 0 0 0 .668l.207-.183c.024-.231-.024-.461-.207-.485z" class="cls-2" transform="translate(-7.333 -4.457)"/><path id="Path_397" d="M24.907 19.888c-.064.469.135.572.246.795.04-.27.167-.119.31-.079a2.027 2.027 0 0 1 0-.62c-.103-.159-.363-.084-.556-.096z" class="cls-2" transform="translate(-7.279 -4.184)"/><path id="Path_398" d="M45.446 15.22a.469.469 0 0 0-.056.215h.127c.008-.112 0-.207-.071-.215z" class="cls-2" transform="translate(-11.486 -3.227)"/><path id="Path_399" d="M50.549 14.688c-.072.143 0 .5-.119.6-.278-.223-.143-.668-.437-.962a2.194 2.194 0 0 0 .381 1.637l.183.056c.031-.409.23-1.157-.008-1.331z" class="cls-2" transform="translate(-12.424 -3.044)"/><path id="Path_400" d="M50.139 4.185a.4.4 0 0 0-.31-.445c-.029.342.135.381.31.445z" class="cls-2" transform="translate(-12.396 -.871)"/><path id="Path_401" d="M48.43 4.288c-.1-.111-.254 0-.31.167h.27a1.309 1.309 0 0 0 .04-.167z" class="cls-2" transform="translate(-12.046 -.974)"/><path id="Path_402" d="M48.27 2.75v.612c.318.031.318-.652 0-.612z" class="cls-2" transform="translate(-12.077 -.667)"/><path id="Path_403" d="M51.46 16.636l.278.1a.358.358 0 0 0 0-.254.215.215 0 0 0-.278.159z" class="cls-2" transform="translate(-12.732 -3.483)"/><path id="Path_404" d="M52.874 15.38a.548.548 0 0 0 .1.493c.035-.119.067-.493-.1-.493z" class="cls-2" transform="translate(-13.017 -3.26)"/><path id="Path_405" d="M61 20.6c0 .509.191.66.556.612 0-.54-.405-.421-.556-.612z" class="cls-2" transform="translate(-14.69 -4.331)"/><path id="Path_406" d="M11.579 19.787c.056-.477-.31-.6-.429-.35.008.303.318.47.429.35z" class="cls-2" transform="translate(-4.458 -4.067)"/><path id="Path_407" d="M10 16c.111.707.6.922.795 1.494C11.1 16.795 10.4 16.215 10 16z" class="cls-2" transform="translate(-4.222 -3.387)"/><path id="Path_408" d="M10.425 20.685c.223 0 .167-.238.127-.437-.214-.063-.222.302-.127.437z" class="cls-2" transform="translate(-4.297 -4.258)"/><path id="Path_409" d="M9.054 24.16c-.143.048-.294.072-.294.318.1 0 .143.064.223.087l.119-.246a.469.469 0 0 0-.048-.159z" class="cls-2" transform="translate(-3.968 -5.062)"/><path id="Path_410" d="M7.721 19a.453.453 0 0 1-.207 0c-.064.087-.111.175-.175.262.176.138.422.238.382-.262z" class="cls-2" transform="translate(-3.676 -4.003)"/><path id="Path_411" d="M19.372 9.589c.191 0 .191-.715-.064-.612s-.191.716.064.612z" class="cls-2" transform="translate(-6.099 -1.944)"/><path id="Path_412" d="M20.128 11.611c-.318-.318-.294.493-.628.429v.079l.572-.445a.278.278 0 0 0 .056-.063z" class="cls-2" transform="translate(-6.172 -2.471)"/><path id="Path_413" d="M22.359 9.172c0-.286-.143-.389-.127-.707h-.1a.234.234 0 0 0-.278-.254.493.493 0 0 0 .056.358 2.758 2.758 0 0 1-.286.246 1.351 1.351 0 0 0 .735.357z" class="cls-2" transform="translate(-6.607 -1.788)"/><path id="Path_414" d="M13.957 12.729c.087-.1.1-.421-.064-.429s-.126.429.064.429z" class="cls-2" transform="translate(-5 -2.628)"/><path id="Path_415" d="M17.283 10.545c0-.374.381-.525.254-.795-.278.008-.501.588-.254.795z" class="cls-2" transform="translate(-5.695 -2.104)"/><path id="Path_416" d="M17.453 11.3c.2.04.278-.079.254-.35-.175.072-.167-.127-.31-.087a.8.8 0 0 0 .056.437z" class="cls-2" transform="translate(-5.739 -2.331)"/><path id="Path_417" d="M16.441 11.63c-.048.064-.135.493 0 .525s.135-.485 0-.525z" class="cls-2" transform="translate(-5.529 -2.49)"/><path id="Path_418" d="M47.18 2c0 .644.35.461.683.35-.031-.45-.381-.35-.683-.35z" class="cls-2" transform="translate(-11.853 -.512)"/><path id="Path_419" d="M46.72 2.411c-.048-.246.087-.223.064-.437-.532-.739 0-1.192.207-1.772L46.275.13c-.183.842-.143 1.979.445 2.281z" class="cls-2" transform="translate(-11.648 -.13)"/><path id="Path_420" d="M53.36 16.713c.453.207.286-.477.628-.437.2.215.175.739.612.612-.04-.525-.366-.652-.366-1.232l-.119-.056c-.445.072-.683.469-.755 1.113z" class="cls-2" transform="translate(-13.122 -3.305)"/><path id="Path_421" d="M59.578 6.9a.7.7 0 0 0 .056-.389c-.191 0-.278.087-.294.31.111-.049.135.079.238.079z" class="cls-2" transform="translate(-14.349 -1.439)"/><path id="Path_422" d="M64.027 24.635a.27.27 0 0 0-.437-.135c.334.374.66.795.97 1.16a1.478 1.478 0 0 1 .517-.3 1.113 1.113 0 0 0-.262-.723.3.3 0 0 0-.151-.405.381.381 0 0 0-.151.183c-.079 0-.143.04-.183.159s.048.087.087.087-.048.183-.064.27c-.127-.137-.215-.28-.326-.296z" class="cls-2" transform="translate(-15.221 -5.076)"/><path id="Path_423" d="M44.544 13.41h-.23a1.065 1.065 0 0 0-.1.318.413.413 0 0 0 .33-.318z" class="cls-2" transform="translate(-11.244 -2.856)"/><path id="Path_424" d="M41.166 1.44c0 .2-.4.374-.183.612.001-.167.39-.366.183-.612z" class="cls-2" transform="translate(-10.568 -.399)"/><path id="Path_425" d="M40.741 2.43c-.175.23 0 .723.191.7-.119-.152.056-.716-.191-.7z" class="cls-2" transform="translate(-10.517 -.602)"/><path id="Path_426" d="M41.86 1.147c.111 0 .151.183.31.167V.876c-.199-.063-.278.096-.31.271z" class="cls-2" transform="translate(-10.761 -.28)"/><path id="Path_427" d="M58.319 17.914a1.59 1.59 0 0 0-.1-.374c-.119-.079-.238-.159-.366-.23v.167c.204.048.227.381.466.437z" class="cls-2" transform="translate(-14.043 -3.656)"/><path id="Path_428" d="M69.39 14.51l.087.079v-.072z" class="cls-2" transform="translate(-16.412 -3.081)"/><path id="Path_429" d="M68.84 11.974a.8.8 0 0 0-.254-.874.723.723 0 0 0 .254.874z" class="cls-2" transform="translate(-16.235 -2.382)"/><path id="Path_430" d="M51.24 2.9c.223 0 .175.405.437.35-.1-.5.048-.326.119-.7-.214-.133-.421.225-.556.35z" class="cls-2" transform="translate(-12.686 -.621)"/><path id="Path_431" d="M50.469 14.31h-.119v.1a.334.334 0 0 0 .119-.1z" class="cls-2" transform="translate(-12.504 -3.04)"/><path id="Path_432" d="M62.47 4.63v.2c.183 0 .215-.056.3 0z" class="cls-2" transform="translate(-14.991 -1.054)"/><path id="Path_433" d="M63.1 5.345c-.04-.207.1-.175.1-.334L63 4.9c0 .2-.05.437.1.445z" class="cls-2" transform="translate(-15.098 -1.109)"/><path id="Path_434" d="M61.529 4.581h.223a.8.8 0 0 0 0-.318l-.167-.063c.04.207-.08.2-.056.381z" class="cls-2" transform="translate(-14.798 -.965)"/><path id="Path_435" d="M60.985 5.7c-.072-.254-.072-.691-.405-.636.151.156.334.625.405.636z" class="cls-2" transform="translate(-14.603 -1.143)"/><path id="Path_436" d="M64.926 9.32a1.59 1.59 0 0 1-.636.079c0 .159.064.175.064.318.27-.023.5.04.572-.397z" class="cls-2" transform="translate(-15.365 -2.016)"/><path id="Path_437" d="M63.609 9.855c.072-.079.215-.072.23-.238-.183-.056-.215.079-.35.087v.215l.111.072a.442.442 0 0 1 .009-.136z" class="cls-2" transform="translate(-15.201 -2.074)"/><path id="Path_438" d="M81.78 25.248c.23.048.366.3.254.612.207.072.23-.111.262-.286-.143-.334-.3-.668-.453-.993a2.8 2.8 0 0 1-.063.667z" class="cls-2" transform="translate(-18.955 -5.148)"/><path id="Path_439" d="M78.227 26.5c0-.2.2-.445.056-.548a.612.612 0 0 1-.262.23l.143.294z" class="cls-2" transform="translate(-18.183 -5.429)"/><path id="Path_440" d="M77.68 21.038c0-.072 0-.159.056-.159-.079-.238-.167-.453-.405-.469v.548c.169-.079.214.08.349.08z" class="cls-2" transform="translate(-18.041 -4.292)"/><path id="Path_441" d="M68 27.869c0 .2 0 .477.183.525a.191.191 0 0 1 .127-.175c.016-.246-.087-.374-.31-.35z" class="cls-2" transform="translate(-16.126 -5.823)"/><path id="Path_442" d="M82.014 28.865h.731c-.191 0-.159-.31-.191-.525-.381 0-.493.286-.795 0a2.329 2.329 0 0 0 .119.6.437.437 0 0 1 .136-.075z" class="cls-2" transform="translate(-18.951 -5.92)"/><path id="Path_443" d="M80.84 25.462c-.1 0-.23 0-.246-.087s0-.175-.064-.175v.525c.199.039.254-.112.31-.263z" class="cls-2" transform="translate(-18.698 -5.275)"/><path id="Path_444" d="M81.211 23.6c-.127-.048-.183-.215-.374-.175-.048.326.111.374.064.7.286.09.326-.18.31-.525z" class="cls-2" transform="translate(-18.759 -4.911)"/><path id="Path_445" d="M79.8 28.879c.1-.04.238-.04.294-.159a1.367 1.367 0 0 0-.294-.31c-.124.151-.021.29 0 .469z" class="cls-2" transform="translate(-18.536 -5.934)"/><path id="Path_446" d="M78.33 26.9c.064.135.135.27.191.413v-.389a.3.3 0 0 1-.183-.079.2.2 0 0 1-.008.056z" class="cls-2" transform="translate(-18.247 -5.612)"/><path id="Path_447" d="M78.843 28.088a.413.413 0 0 1 .056-.183l-.159-.056c.04.12.072.16.103.239z" class="cls-2" transform="translate(-18.331 -5.819)"/><path id="Path_448" d="M78.6 27.47c.04.087.072.183.111.27 0-.151 0-.286-.072-.334s-.023.04-.039.064z" class="cls-2" transform="translate(-18.302 -5.725)"/><path id="Path_449" d="M80 23.632c0-.135.087-.223.127-.35-.119 0-.159-.2-.31-.183-.151.223.063.422.183.533z" class="cls-2" transform="translate(-18.541 -4.844)"/><path id="Path_450" d="M78.317 19.677c-.143-.087-.183-.326-.286-.469-.342.413.215.676 0 1.184.294-.1.334.421.517.23-.048-.572.135-.795.413-.922a11.769 11.769 0 0 0-.342-.54.715.715 0 0 1-.3.517z" class="cls-2" transform="translate(-18.162 -4.036)"/><path id="Path_451" d="M79.417 20.116v-.056s-.024.056 0 .056z" class="cls-2" transform="translate(-18.468 -4.221)"/><path id="Path_452" d="M80.168 22.17c0-.238-.135-.223-.23-.31.215-.048.223.2.4.191a.31.31 0 0 1 .048-.286c-.151-.262-.294-.525-.445-.795a1.16 1.16 0 0 1 0 .89c0 .087-.064.1-.048.223a.3.3 0 0 0 .275.087z" class="cls-2" transform="translate(-18.566 -4.407)"/><path id="Path_453" d="M78.57 22.089c.159 0 .167-.2.175-.389-.167-.016-.167.183-.175.389z" class="cls-2" transform="translate(-18.296 -4.557)"/><path id="Path_454" d="M79 26a.509.509 0 0 0 .437.517A.477.477 0 0 0 79 26z" class="cls-2" transform="translate(-18.384 -5.44)"/><path id="Path_455" d="M80.76 23.9c0-.223-.127-.286-.23-.389-.017.237.015.389.23.389z" class="cls-2" transform="translate(-18.697 -4.929)"/><path id="Path_456" d="M78.93 21.215c.5-.207.294.795.755.389-.064-.23-.056-.556-.175-.707-.246.342-.183-.374-.35-.4s-.174.448-.23.718z" class="cls-2" transform="translate(-18.37 -4.311)"/><path id="Path_457" d="M78.26 19.05c.469-.04 0-.675 0 0z" class="cls-2" transform="translate(-18.232 -3.95)"/><path id="Path_458" d="M31.146 67.64a2.432 2.432 0 0 0-.636.795.858.858 0 0 0 .636-.795z" class="cls-2" transform="translate(-8.432 -13.986)"/><path id="Path_459" d="M18.667 55.49c-.31.079-.215.7-.517.795.223.143.223-.2.405.079.045-.278.271-.572.112-.874z" class="cls-2" transform="translate(-5.895 -11.492)"/><path id="Path_460" d="M22.4 75.967c.087-.111.1-.429-.064-.437-.08.111-.088.429.064.437z" class="cls-2" transform="translate(-6.742 -15.605)"/><path id="Path_461" d="M24.088 64.94a.334.334 0 0 0-.238.087l.223.183a.556.556 0 0 0 .016-.27z" class="cls-2" transform="translate(-7.065 -13.432)"/><path id="Path_462" d="M21.2 61.225c0-.262.374 0 .342-.318-.151 0-.493-.151-.636.079.147.033.115.279.294.239z" class="cls-2" transform="translate(-6.461 -12.594)"/><path id="Path_463" d="M32.28 69.806c0-.191-.111-.167-.064-.4-.262-.053-.207.536.064.4z" class="cls-2" transform="translate(-8.747 -14.348)"/><path id="Path_464" d="M29.43 68.811h.07c.087 0 .064-.215.151-.23a.8.8 0 0 0 .1.358l.326.159a.8.8 0 0 0 .1-.525c-.294.063-.677-.223-.747.238z" class="cls-2" transform="translate(-8.21 -14.171)"/><path id="Path_465" d="M29.993 67.256c-.087 0-.079-.151-.072-.3l-.127-.064v.366A1.669 1.669 0 0 0 29 68.3l.3.151a2.011 2.011 0 0 1 .693-1.195z" class="cls-2" transform="translate(-8.122 -13.832)"/><path id="Path_466" d="M5.817 61.527c-.119 0-.135-.1-.246-.087.064.381-.215.286-.191.612.294.032.429-.167.437-.525z" class="cls-2" transform="translate(-3.274 -12.713)"/><path id="Path_467" d="M6.031 26.92c-.159.183-.342.477-.644.238a.918.918 0 0 0 .183.938c.294-.318.875-.524.461-1.176z" class="cls-2" transform="translate(-3.266 -5.629)"/><path id="Path_468" d="M4.767 29.69c-.262 0-.723.461-.405.795.038-.398.421-.334.405-.795z" class="cls-2" transform="translate(-3.043 -6.197)"/><path id="Path_469" d="M5.186 29.236a1.256 1.256 0 0 0-.207-.636c-.179.27-.048.668.207.636z" class="cls-2" transform="translate(-3.175 -5.973)"/><path id="Path_470" d="M3.135 49.535c0 .191-.167-.087-.056-.159-.167-.064-.143.119-.286.079 0 .445.079.58-.064.866.16-.182.454-.595.406-.786z" class="cls-2" transform="translate(-2.73 -10.235)"/><path id="Path_471" d="M14.478 35.975a.715.715 0 0 1-.151.294 23.08 23.08 0 0 0-.207 1.041.8.8 0 0 0 .358-.23c.072-.246-.064-.389.175-.469-.1-.381 0-.85-.151-1.121l-.048.23a.8.8 0 0 1 .024.255z" class="cls-2" transform="translate(-5.068 -7.387)"/><path id="Path_472" d="M8.429 66.124c.286 0 .358-.262.374-.612-.151-.135-.403.199-.374.612z" class="cls-2" transform="translate(-3.899 -13.543)"/><path id="Path_473" d="M15.276 34.661a1.327 1.327 0 0 0 .35-.636c-.143-.23-.2-.978.056-1.1.493.143.509-.358.985-.238 0-.381-.159-.525-.175-.866.215-.207.5 0 .683.127a1.478 1.478 0 0 1 .079-.2 1.367 1.367 0 0 0-.246-.556c-.223-.048.04.326-.175.389 0-.159-.175-.31-.056-.469-.159 0-.342 0-.35-.159.175.079.1-.175.111-.31a8.691 8.691 0 0 0-.35-.437 23.247 23.247 0 0 0-1.28 3.346c.137.354.018 1.048.368 1.109z" class="cls-2" transform="translate(-5.23 -6.304)"/><path id="Path_474" d="M17.616 53.42c-.119.143-.1.493-.342.469s-.183-.167-.294-.23c0 .4.4.683.7.461-.271-.303.23-.462-.064-.7z" class="cls-2" transform="translate(-5.655 -11.068)"/><path id="Path_475" d="M17.506 29.959c-.135-.175-.405-.167-.691-.151a.358.358 0 1 0 .691.151z" class="cls-2" transform="translate(-5.616 -6.22)"/><path id="Path_476" d="M14.132 40c-.079 0-.064-.175-.111-.238a.6.6 0 0 0-.191.087v.358a.27.27 0 0 0 .3-.207z" class="cls-2" transform="translate(-5.008 -8.264)"/><path id="Path_477" d="M14.521 39.477a.588.588 0 0 0 .23-.548c-.1-.2-.564.079-.58-.23 0-.127.183-.072.111-.318-.508.15-.182 1.088.239 1.096z" class="cls-2" transform="translate(-5.048 -7.981)"/><path id="Path_478" d="M37.957 81.83a1.852 1.852 0 0 1 .191-.525c-.262-.358-.294.1-.556.183 0-.072 0-.183-.072-.183.024.358.18.525.437.525z" class="cls-2" transform="translate(-9.87 -16.763)"/><path id="Path_479" d="M67.2 26.264a.191.191 0 0 0 .2-.1l-.191-.27a1.876 1.876 0 0 0-.008.374z" class="cls-2" transform="translate(-15.961 -5.417)"/><path id="Path_480" d="M48.76 70.173a.683.683 0 0 1 .064-.35.906.906 0 0 0-.2-.143h-.214c.024.32.119.501.35.493z" class="cls-2" transform="translate(-12.106 -14.405)"/><path id="Path_481" d="M47.46 44.5l1 .6a3.513 3.513 0 0 0 .087-.517c-.048-.215-.215-.27-.3-.437a1.081 1.081 0 0 1-.787.35z" class="cls-2" transform="translate(-11.911 -9.165)"/><path id="Path_482" d="M48.355 54.08c-.079.111-.1.429.064.445.087-.119.095-.437-.064-.445z" class="cls-2" transform="translate(-12.082 -11.203)"/><path id="Path_483" d="M48.37 51.35a4.586 4.586 0 0 1 .31 1.208c.413-.238.31-.556.143-.93l-.064-.04z" class="cls-2" transform="translate(-12.097 -10.643)"/><path id="Path_484" d="M46.559 50.813a2.837 2.837 0 0 1-.064-.564l-.286-.159a1.034 1.034 0 0 0 0 .119c.223.016.12.549.35.604z" class="cls-2" transform="translate(-11.654 -10.384)"/><path id="Path_485" d="M46.529 52.85c0-.445.127-.413.127-.97a.66.66 0 0 0-.127.97z" class="cls-2" transform="translate(-11.687 -10.751)"/><path id="Path_486" d="M47.62 51.654c0-.262 0-.485-.183-.445a.405.405 0 0 0 .183.445z" class="cls-2" transform="translate(-11.903 -10.613)"/><path id="Path_487" d="M68.269 27.49l-.2-.31a.548.548 0 0 0 .175.4.143.143 0 0 1 .025-.09z" class="cls-2" transform="translate(-16.141 -5.682)"/><path id="Path_488" d="M65 58.136l.191-.04a4.929 4.929 0 0 1 .111-.517c-.202.001-.246.271-.302.557z" class="cls-2" transform="translate(-15.511 -11.921)"/><path id="Path_489" d="M65 45.335c.167 0 .215-.23.246-.437-.246-.056-.246.175-.246.437z" class="cls-2" transform="translate(-15.511 -9.317)"/><path id="Path_490" d="M64.076 60.669c.191 0 .2-.183.183-.429-.072.1-.159.175-.238.27a.342.342 0 0 0 .056.159z" class="cls-2" transform="translate(-15.309 -12.467)"/><path id="Path_491" d="M61.322 44.9c-.135.04-.056.485.064.445s.135-.405 0-.445h-.079z" class="cls-2" transform="translate(-14.741 -9.319)"/><path id="Path_492" d="M69.617 73.355c-.056-.294 0-.405-.064-.795-.381.294-.97-.183-.993.525.111 0 .127.1.246.087s.1-.326.246-.35a1.351 1.351 0 0 1 .564.532z" class="cls-2" transform="translate(-16.241 -14.996)"/><path id="Path_493" d="M69.157 42.9c-.056.334.135.342.246.437.017-.286-.071-.421-.246-.437z" class="cls-2" transform="translate(-16.362 -8.908)"/><path id="Path_494" d="M69.09 46.706l.27-.119v-.047a.254.254 0 0 0-.27.166z" class="cls-2" transform="translate(-16.35 -9.655)"/><path id="Path_495" d="M70.26 46.86v.2a.707.707 0 0 1 .151.056.8.8 0 0 0-.151-.256z" class="cls-2" transform="translate(-16.59 -9.721)"/><path id="Path_496" d="M69.489 29.879V29.8c0-.024-.135-.262-.2-.389a.668.668 0 0 0 .2.469z" class="cls-2" transform="translate(-16.391 -6.14)"/><path id="Path_497" d="M68.282 31.76h-.056c-.056 0 .079.175.111.262a.493.493 0 0 0-.056-.262z" class="cls-2" transform="translate(-16.17 -6.622)"/><path id="Path_498" d="M66.69 28.767l.119.191a.27.27 0 0 0 0-.278.166.166 0 0 1-.119.087z" class="cls-2" transform="translate(-15.857 -5.99)"/><path id="Path_499" d="M52.21 54.171c.223 0 .294-.167.493-.183a.389.389 0 0 0-.1-.223l-.223-.1c-.003.267-.146.267-.17.506z" class="cls-2" transform="translate(-12.886 -11.119)"/><path id="Path_500" d="M52.1 46.994l.238.1v-.111a.453.453 0 0 0-.238.011z" class="cls-2" transform="translate(-12.863 -9.743)"/><path id="Path_501" d="M54.77 57.167a.548.548 0 0 1 .318-.437c.493 1.59.747-.1 1.3-.183.405-.064.564.429.993 0a1.633 1.633 0 0 0-.127-.525c-.223 0-.294.159-.493.175-.048-.27.1-.262.056-.525a.691.691 0 0 0-.866.445c-.358-.35-1.391-.795-1.677 0-.262 0-.374-.183-.437-.445a1.534 1.534 0 0 0 .31-.7 1.28 1.28 0 0 1-.278-.795 9.542 9.542 0 0 1-.652-.238 1.009 1.009 0 0 1-.064 1.264c0 .286.175.334.127.7-.246-.064-.381.048-.374.35.207.27.334-.1.493-.175.286.246.334.795.381.882.127-.215.278.064.413.2h.127c.164.007.251-.12.45.007z" class="cls-2" transform="translate(-13.029 -11.174)"/><path id="Path_502" d="M54.763 46.355a4.028 4.028 0 0 0-.056-.636c-.874-.071-.595 1.455.056.636z" class="cls-2" transform="translate(-13.285 -9.486)"/><path id="Path_503" d="M50.332 45.181c-.342-.111-.056-.731-.564-.691a1.86 1.86 0 0 0 .254 1.129c.167-.049.35-.096.31-.438z" class="cls-2" transform="translate(-12.383 -9.234)"/><path id="Path_504" d="M51.161 45.14c-.048.064-.135.493 0 .525.088-.112.223-.465 0-.525z" class="cls-2" transform="translate(-12.656 -9.368)"/><path id="Path_505" d="M51 56.257a.421.421 0 0 1 0 .445l.238.111h.056c.072-.429-.151-.826-.294-.556z" class="cls-2" transform="translate(-12.637 -11.632)"/><path id="Path_506" d="M55.632 44.626v-.175c0-.064-.2-.048-.3-.072a.731.731 0 0 0 .3.247z" class="cls-2" transform="translate(-13.526 -9.212)"/><path id="Path_507" d="M55 47.732l.262.048a6.311 6.311 0 0 0-.111-.66 1.915 1.915 0 0 0-.151.612z" class="cls-2" transform="translate(-13.458 -9.774)"/><path id="Path_508" d="M19.308 57.387c-.056-.111-.159-.159-.175-.31-.183-.064-.167.135-.35.072 0 .183-.1.23-.056.469.215.063.581.19.581-.231z" class="cls-2" transform="translate(-6.011 -11.815)"/><path id="Path_509" d="M18 58v.1l.183.294c.008-.203.008-.346-.183-.394z" class="cls-2" transform="translate(-5.864 -12.008)"/><path id="Path_510" d="M17.8 57.37a.532.532 0 0 0-.223.048 1.113 1.113 0 0 0 .079.127.294.294 0 0 0 .143-.175z" class="cls-2" transform="translate(-5.778 -11.878)"/><path id="Path_511" d="M40.456 37.758l.079-.048h-.1a.191.191 0 0 1 .016.048z" class="cls-2" transform="translate(-10.47 -7.843)"/><path id="Path_512" d="M44.444 50.071c.23.135.294-.668.064-.612s-.072.31-.064.612z" class="cls-2" transform="translate(-11.279 -10.254)"/><path id="Path_513" d="M36.3 37.882a.739.739 0 0 0-.691-.27v2.448a13.175 13.175 0 0 1 1.812.079 2.965 2.965 0 0 0-.374-.946c0 .294-.27.087-.31-.087.254-.223.4.246.683 0 .064-.429-.238-.31-.318-.532 0-.429.1-.795.5-.691a.668.668 0 0 1 .064.429c.238-.262.453 0 .747.1.079.548-.358.731-.127 1.224.453-.04.588-1.144.993-.707 0-.572-.58-.572-.683-1.224a.23.23 0 0 1 .111-.191l-.485-.072v.087a2.05 2.05 0 0 0-1.922.353z" class="cls-2" transform="translate(-9.478 -7.784)"/><path id="Path_514" d="M36.342 37.572c0-.175.175-.207.27-.3H36.2a.294.294 0 0 0 .142.3z" class="cls-2" transform="translate(-9.599 -7.753)"/><path id="Path_515" d="M33.57 70.129c0 .23.326.183.405.087.048-.508-.349-.429-.405-.087z" class="cls-2" transform="translate(-9.06 -14.44)"/><path id="Path_516" d="M43.4 52.495a.35.35 0 0 0-.509-.159l.477.215a.127.127 0 0 0 .032-.056z" class="cls-2" transform="translate(-10.973 -10.834)"/><path id="Path_517" d="M43.81 52.643l.548.278a3.521 3.521 0 0 0 .215-.723c-.273-.167-.564.159-.763.445z" class="cls-2" transform="translate(-11.161 -10.807)"/><path id="Path_518" d="M45.225 51.869s-.469-.064-.4.246c.138.135.375-.008.4-.246z" class="cls-2" transform="translate(-11.369 -10.748)"/><path id="Path_519" d="M47.459 54.836a1.248 1.248 0 0 1-.183-.429h-.31c-.064-.111-.056-.318-.119-.437a1.025 1.025 0 0 0-.477.191l.517.318z" class="cls-2" transform="translate(-11.687 -11.18)"/><path id="Path_520" d="M49.893 55.242c-.048-.246.087-.23.064-.437a.509.509 0 0 1-.191-.175 1.3 1.3 0 0 1-1.256.707l.739.429c.151-.349.445-.604.644-.524z" class="cls-2" transform="translate(-12.126 -11.316)"/><path id="Path_521" d="M37.479 82.23c-.2 0-.207.191-.191.445.247.111.183-.215.191-.445z" class="cls-2" transform="translate(-9.822 -16.981)"/><path id="Path_522" d="M37.945 79.866c0-.278-.079-.469-.246-.517s-.318.477-.191.691c.23.08.246-.174.437-.174z" class="cls-2" transform="translate(-9.858 -16.389)"/><path id="Path_523" d="M38.442 58.18a.429.429 0 0 0-.246.62h.191c-.056-.334.206-.421.055-.62z" class="cls-2" transform="translate(-9.998 -12.044)"/><path id="Path_525" d="M35.751 71.154c0-.429.056-.906.429-.97.2-.048.143.27.374.175 0-.389-.223-.389-.246-.7-.175 0-.262.159-.437.175a.985.985 0 0 1-.183.612c-.159.072-.342-.262-.437 0 .2.048.215.254.191.493h.1v.254h.31a.159.159 0 0 0-.101-.039z" class="cls-2" transform="translate(-9.405 -14.401)"/><path id="Path_526" d="M36 83.989c0 .366.159.421.374.437.039-.437-.295-.556-.374-.437z" class="cls-2" transform="translate(-9.559 -17.333)"/><path id="Path_527" d="M37.043 81.13c-.27 0-.4.207-.374.612.263.024.175-.509.374-.612z" class="cls-2" transform="translate(-9.695 -16.755)"/><path id="Path_528" d="M36.59 79.807v.35c.326.135.21-.457 0-.35z" class="cls-2" transform="translate(-9.68 -16.481)"/><path id="Path_529" d="M67.12 29.477l.238.445a.413.413 0 0 1 .056-.246c-.199.095-.071-.287-.294-.199z" class="cls-2" transform="translate(-15.946 -6.151)"/><path id="Path_530" d="M69.18 56.48a.413.413 0 0 0 .183.334h.079a.509.509 0 0 0-.262-.334z" class="cls-2" transform="translate(-16.369 -11.696)"/><path id="Path_531" d="M56.871 48.018c-.191-.079-.286-.294-.5-.358a1.05 1.05 0 0 0 .048.389l.429.056z" class="cls-2" transform="translate(-13.739 -9.885)"/><path id="Path_532" d="M59.374 48c-.2-.04-.143.27-.374.183v.135h.413a1.176 1.176 0 0 0-.04-.318z" class="cls-2" transform="translate(-14.279 -9.954)"/><path id="Path_533" d="M56.829 55h-.119v.072a.294.294 0 0 0 .119-.072z" class="cls-2" transform="translate(-13.809 -11.392)"/><path id="Path_535" d="M59.516 89.166c.223 0 .286.143.374.278h.087a2.1 2.1 0 0 0-.111-.6c-.326 0-.453.238-.644.4-.111 0-.048-.286-.167-.31a1.931 1.931 0 0 1-.175.389.421.421 0 0 1 .215.1h.294a.66.66 0 0 1 .127-.254z" class="cls-2" transform="translate(-14.255 -18.337)"/><path id="Path_536" d="M44.222 73.3c.1-.493-.453-.437-.374 0 .23.016.183.1.374 0z" class="cls-2" transform="translate(-11.168 -15.076)"/><path id="Path_537" d="M45.9 73.167c.072-.278 0-.238-.064-.437-.207 0-.23.262-.31.437.211-.008.155-.095.374 0z" class="cls-2" transform="translate(-11.514 -15.031)"/><path id="Path_538" d="M45.871 80.9a1.366 1.366 0 0 1-.056-.167l-.445-.215c.095.272.27.439.501.382z" class="cls-2" transform="translate(-11.482 -16.63)"/><path id="Path_539" d="M45.7 74.27h-.12a2.073 2.073 0 0 0 .223.135.635.635 0 0 0-.103-.135z" class="cls-2" transform="translate(-11.525 -15.347)"/><path id="Path_540" d="M38.257 59.61c-.564 0-.6.739-1.057.882v.525c.421-.143.6-1.033 1.113-.525a2.7 2.7 0 0 0-.056-.882z" class="cls-2" transform="translate(-9.805 -12.338)"/><path id="Path_541" d="M39 49.192c.056.326 0 .795.191.97a1.86 1.86 0 0 0 .556-.532h.048a.326.326 0 0 0 0-.087 2.384 2.384 0 0 1 .23-.262 1.073 1.073 0 0 0-.318-.7c.088.436-.302 1.064-.707.611z" class="cls-2" transform="translate(-10.174 -10.074)"/><path id="Path_542" d="M45.126 85.09h-.246a1.208 1.208 0 0 0 .072.413h.1a.533.533 0 0 0 .072-.413z" class="cls-2" transform="translate(-11.381 -17.568)"/><path id="Path_543" d="M38.909 81.24c0 .151-.183.358 0 .437a.31.31 0 0 1 .374-.175c.008-.278-.183-.262-.374-.262z" class="cls-2" transform="translate(-10.139 -16.777)"/><path id="Path_544" d="M38.69 71.635v.238l.246.048c0-.166-.047-.365-.246-.286z" class="cls-2" transform="translate(-10.111 -14.802)"/><path id="Path_545" d="M40.845 41.218a.326.326 0 0 1 .1-.215c.1 0 .342.215.405 0a.085.085 0 0 0-.048-.072c0-.215-.23-.429-.318-.215a.207.207 0 0 1 .072.111.509.509 0 0 0-.342.254v.1z" class="cls-2" transform="translate(-10.525 -8.442)"/><path id="Path_546" d="M45.565 53.568c.143-.2 0-.429 0-.7-.509-.068-.247.632 0 .7z" class="cls-2" transform="translate(-11.462 -10.953)"/><path id="Path_547" d="M45.365 60.159c-.056.35-.072.795-.366.795 0 .3.127.453.366.437s.2-.668.628-.532a1.677 1.677 0 0 0-.278-.731c-.262-.135-.525-.27-.795-.4a1.089 1.089 0 0 1 .445.429z" class="cls-2" transform="translate(-11.389 -12.363)"/><path id="Path_548" d="M44.743 81.686c.175-.207.048-.294.064-.7-.111 0-.135-.1-.246-.087.102.201.094.565.182.787z" class="cls-2" transform="translate(-11.315 -16.707)"/><path id="Path_549" d="M42.539 62.3l.58.246a1.915 1.915 0 0 0-.286-1.065 1 1 0 0 0-.294.819z" class="cls-2" transform="translate(-10.899 -12.722)"/><path id="Path_550" d="M44.93 52.632h.31a1.025 1.025 0 0 1 .06-.532 1.129 1.129 0 0 0-.37.532z" class="cls-2" transform="translate(-11.391 -10.797)"/><path id="Path_551" d="M37.136 68.55c-.246.127-.532 0-.866.087 0 .636.461.525.683.795a10.887 10.887 0 0 0 .183 1.232c.35-.056.445 0 .62-.175a8.83 8.83 0 0 1-.119-1.748c-.1.119 0 .5-.246.429a.35.35 0 0 1-.318-.254c.095-.008.055-.223.063-.366z" class="cls-2" transform="translate(-9.614 -14.173)"/><path id="Path_552" d="M37.417 84.171a2.257 2.257 0 0 0 .064-.612c-.281-.059-.207.541-.064.612z" class="cls-2" transform="translate(-9.824 -17.252)"/><path id="Path_553" d="M42.575 72.509c0-.246.294-.1.254-.429h-.318c-.032.215-.079.302.064.429z" class="cls-2" transform="translate(-10.888 -14.897)"/><path id="Path_554" d="M43.277 79.745a.238.238 0 0 1 0-.079l-.167-.056a.612.612 0 0 0 .167.135z" class="cls-2" transform="translate(-11.018 -16.443)"/><path id="Path_555" d="M41.8 41.576l.254.087c0-.223.246 0 .238-.366-.103-.038-.333.103-.492.279z" class="cls-2" transform="translate(-10.749 -8.578)"/><path id="Path_556" d="M38.7 85.232a.238.238 0 0 0 .374 0c.048-.238-.127-.167-.127-.342-.147 0-.239.087-.247.342z" class="cls-2" transform="translate(-10.113 -17.527)"/><path id="Path_557" d="M37.428 50.451a.564.564 0 0 0 .183.525h.374c.063-.493-.385-.636-.557-.525z" class="cls-2" transform="translate(-9.85 -10.451)"/><path id="Path_558" d="M37.565 48.224c.207-.111.254-.413.5-.445v-.119h-.389a.691.691 0 0 0-.111.564z" class="cls-2" transform="translate(-9.876 -9.885)"/><path id="Path_559" d="M42.057 84.842c.31.167.334-.58.127-.612a.85.85 0 0 0-.127.612z" class="cls-2" transform="translate(-10.799 -17.391)"/><path id="Path_560" d="M41.35 79.922c.087.119.294.064.461.072.056-.588-.405-.374-.461-.072z" class="cls-2" transform="translate(-10.657 -16.445)"/><path id="Path_561" d="M58.269 48.147c.223-.072.413-.175.374-.612-.326-.326-.684.255-.374.612z" class="cls-2" transform="translate(-14.105 -9.84)"/><path id="Path_562" d="M41.387 59.872a2.321 2.321 0 0 0 .556 1.049 1.24 1.24 0 0 0 .246-.612c-.151 0-.191.135-.31.175a1.24 1.24 0 0 1-.127-.7c-.2 0-.262-.135-.556-.175-.111.389-.493.421-.556.882 0 .135.175.151.223.278h-.072v.31c.175 0 .381.048.35-.23h-.072a.334.334 0 0 1 .127-.1c-.055-.349-.135-.829.191-.877z" class="cls-2" transform="translate(-10.511 -12.338)"/><path id="Path_563" d="M41.014 70.748c-.278-.056-.35.2-.374.525.286.071.374-.183.374-.525z" class="cls-2" transform="translate(-10.511 -14.622)"/><path id="Path_564" d="M39.458 59.41c0-.278-.159-.3-.31-.35-.048.34.207.485.31.35z" class="cls-2" transform="translate(-10.204 -12.225)"/><path id="Path_565" d="M41.461 69.126c-.127.048-.191.167-.294.238-.087-.183-.223-.58-.4-.389.246.437.437 1.383 1.033 1.1-.2-.342 0-.556.119-.874-.111 0-.127.1-.238.087.079-.254-.183-.064-.1-.318.183-.1.04.254.223.159a.3.3 0 0 0-.1-.207l-.294-.079c-.004.076.043.124.051.283z" class="cls-2" transform="translate(-10.538 -14.232)"/><path id="Path_566" d="M40.3 71.3c.048-.445-.175-.525-.191-.882-.371.105-.268 1.019.191.882z" class="cls-2" transform="translate(-10.356 -14.557)"/><path id="Path_567" d="M39.875 81.35c0 .207-.286.048-.246.35.119 0 .143.1.254.087s.143-.421-.008-.437z" class="cls-2" transform="translate(-10.303 -16.8)"/><path id="Path_568" d="M39.4 83.51c.064.079.207.461.31.175-.056-.167-.231-.541-.31-.175z" class="cls-2" transform="translate(-10.256 -17.211)"/><path id="Path_569" d="M41.26 59.026c.167 0 .191.262.374.262a.985.985 0 0 0 .143-.7l-.477-.118a1.288 1.288 0 0 1-.04.556z" class="cls-2" transform="translate(-10.638 -12.104)"/><path id="Path_570" d="M40.845 51.085c-.167-.58.517-.469.056-.795-.087.1-.056.35-.286.238 0 .191 0 .381-.119.389a.31.31 0 0 0-.461.079.683.683 0 0 0-.056-.389c-.278-.056-.381.111-.469.31a.286.286 0 0 1 .207.254q.381.072.739.167c.024-.166.087-.333.389-.253z" class="cls-2" transform="translate(-10.279 -10.425)"/><path id="Path_571" d="M40.61 50.238c.23.087.223-.167.4-.159 0-.254-.072-.421-.23-.469-.218.175-.067.366-.17.628z" class="cls-2" transform="translate(-10.505 -10.286)"/><path id="Path_572" d="M59.778 58.25a.381.381 0 0 0 0 .366h.246c-.016-.183-.079-.35-.246-.366z" class="cls-2" transform="translate(-14.429 -12.059)"/><path id="Path_573" d="M59.191 56.487c-.23-.087-.246.429-.064.437.056-.158.207-.254.064-.437z" class="cls-2" transform="translate(-14.28 -11.695)"/><path id="Path_574" d="M59.718 45.685a1.311 1.311 0 0 0 0-.795h-.461a1.016 1.016 0 0 0-.087.159c.191.215.358.445.548.636z" class="cls-2" transform="translate(-14.314 -9.317)"/><path id="Path_575" d="M67.117 76.039c0-.453-.27-.556-.5-.7-.135.072-.151.31-.246.445a1.8 1.8 0 0 0 .62.429.238.238 0 0 1 .126-.174z" class="cls-2" transform="translate(-15.792 -15.566)"/><path id="Path_576" d="M63.84 76.865c.048-.064.135-.493 0-.525-.056.167-.23.453 0 .525z" class="cls-2" transform="translate(-15.249 -15.772)"/><path id="Path_577" d="M67.431 67.155c0-.191-.207-.628-.31-.437.159.111.119.381 0 .532-.2-.1-.143 0-.381 0v.262c.1.1.246.27.381.087a1.009 1.009 0 0 1 .048.143l.151-.048a.58.58 0 0 1 .111-.54z" class="cls-2" transform="translate(-15.868 -13.787)"/><path id="Path_578" d="M64.32 56.432c.223 0 .246-.286.254-.612-.238-.008-.214.342-.254.612z" class="cls-2" transform="translate(-15.371 -11.56)"/><path id="Path_579" d="M63.9 86.149c-.191 0-.405-.048-.374.27.138.223.305-.039.374-.27z" class="cls-2" transform="translate(-15.208 -17.785)"/><path id="Path_580" d="M60.09 57.359c.207.119.23.469.35.707.223-.064.334-.278.342-.628-.191.001-.628-.389-.692-.079z" class="cls-2" transform="translate(-14.503 -11.851)"/><path id="Path_581" d="M59.49 76.949c.127.048.175.215.374.175.136-.374-.39-.524-.374-.175z" class="cls-2" transform="translate(-14.38 -15.856)"/><path id="Path_582" d="M58.53 67.41c0 .215-.119.191-.064.437.278.159.223-.461.064-.437z" class="cls-2" transform="translate(-14.167 -13.939)"/><path id="Path_583" d="M60.838 87.147c.2.072.429.1.636.159a2.877 2.877 0 0 0-.644-.636z" class="cls-2" transform="translate(-14.655 -17.892)"/><path id="Path_584" d="M61.629 63.092c-.286-.159-.318.366-.6.35l-.183.175c.306-.104.783.024.783-.525z" class="cls-2" transform="translate(-14.659 -13.047)"/><path id="Path_585" d="M60.492 64c-.2.159-.413.3-.612.461a1.192 1.192 0 0 0 .278.342c.215-.112.342-.366.334-.803z" class="cls-2" transform="translate(-14.46 -13.239)"/><path id="Path_586" d="M62.021 88.953c.079 0 .111-.111.23-.079 0-.366-.27-.421-.175-.938-.254.111-.159-.262-.167-.469-.143 0-.453-.072-.58.159a2.3 2.3 0 0 1 .4.389c-.167.223-.1.739-.286.938-.064-.477-.405-.087-.517-.469 0-.191.1-.167.056-.389-.175-.127-.342-.2-.517-.079a2.321 2.321 0 0 1 .167.636c-.183-.048-.072.278-.23.072.04.119-.064.405.064.389a.294.294 0 0 1 .191-.207c.048 0 .079.1.119.135l.048.111a9.249 9.249 0 0 0 1.256-.056 1.065 1.065 0 0 1-.056-.143z" class="cls-2" transform="translate(-14.566 -18.053)"/><path id="Path_587" d="M59.919 81.83c-.23 0-.334.2-.31.413l.381-.151a.4.4 0 0 0 0-.1c-.071-.027-.071-.092-.071-.162z" class="cls-2" transform="translate(-14.403 -16.899)"/><path id="Path_588" d="M69.633 75.927c-.048-.342-.072-.731-.374-.707-.032.421.191.858.374.707z" class="cls-2" transform="translate(-16.384 -15.542)"/><path id="Path_589" d="M67.849 58.35c-.079.1-.048.374-.119.493.087-.119.159-.246.238-.374a.286.286 0 0 0-.119-.119z" class="cls-2" transform="translate(-16.071 -12.079)"/><path id="Path_590" d="M62.3 58.28c-.175.191-.31 0-.461.159.048 0 .056.072.064.151h.556c-.023-.127-.142-.151-.159-.31z" class="cls-2" transform="translate(-14.862 -12.065)"/><path id="Path_591" d="M67.069 64.35l-.35.135a.334.334 0 0 0 0 .1.485.485 0 0 0 .35-.23z" class="cls-2" transform="translate(-15.863 -13.311)"/><path id="Path_592" d="M66.992 73.28c.151 0 .183-.1.191-.27l-.223.175a.436.436 0 0 1 .032.095z" class="cls-2" transform="translate(-15.913 -15.088)"/><path id="Path_594" d="M67.122 78.237c-.111-.127-.127-.381-.342-.358 0 .207-.111.254-.064.525l.1-.072z" class="cls-2" transform="translate(-15.861 -16.087)"/><path id="Path_595" d="M65.622 88.35a1 1 0 0 0-.064.477.723.723 0 0 1 .135.072l.27-.064c-.055-.235-.333-.183-.341-.485z" class="cls-2" transform="translate(-15.624 -18.237)"/><path id="Path_596" d="M67.844 53.734c-.127.167-.191.405-.334.532.31 0 .429.254.747.238-.215-.151-.159-.668-.389-.795z" class="cls-2" transform="translate(-16.026 -11.127)"/><path id="Path_597" d="M58.189 46.422c.294 0 .3-.389.564-.175 0-.564-.405-.215-.564-.358 0 .135-.1.223-.119.358.072.009.143.024.119.175z" class="cls-2" transform="translate(-14.088 -9.522)"/><path id="Path_598" d="M68.392 56.658c.072 0 .072.135.064.262a.66.66 0 0 0-.238.795h.082l.223-.358a1.158 1.158 0 0 0 0-.159.135.135 0 0 0 .079-.048.486.486 0 0 0 .056-.079c.116-.254-.158-.771-.266-.413z" class="cls-2" transform="translate(-16.161 -11.707)"/><path id="Path_599" d="M68.34 53.464c.048.119.119.215.262.207a.453.453 0 0 0-.087-.54c-.048.1-.079.215-.119.318z" class="cls-2" transform="translate(-16.196 -11.008)"/><path id="Path_600" d="M68.146 73.7c0-.286-.326-.485-.366-.175.064.163.175.41.366.175z" class="cls-2" transform="translate(-16.081 -15.163)"/><path id="Path_601" d="M68.3 44.258c.127.072.191.27.405.238a.946.946 0 0 0 .056-.477c-.207-.019-.397.04-.461.239z" class="cls-2" transform="translate(-16.188 -9.138)"/><path id="Path_602" d="M66.14 58.35c-.453.064-.143 1.049.064 1.224a6.883 6.883 0 0 0-.064-1.224z" class="cls-2" transform="translate(-15.697 -12.079)"/><path id="Path_603" d="M68.46 54.552c.135 0 0 .381.127.437.596.103.127-1.065-.127-.437z" class="cls-2" transform="translate(-16.221 -11.262)"/><path id="Path_604" d="M65.658 75.117a.8.8 0 0 0 .064.437c.27.08.206-.532-.064-.437z" class="cls-2" transform="translate(-15.644 -15.519)"/><path id="Path_605" d="M52.584 64.66c-.143.207 0 .437 0 .707.222.056.159-.739 0-.707z" class="cls-2" transform="translate(-12.949 -13.374)"/><path id="Path_606" d="M50.623 63.366a.246.246 0 0 0 .278-.183L50.52 63a1.081 1.081 0 0 0 .1.366z" class="cls-2" transform="translate(-12.539 -13.034)"/><path id="Path_607" d="M56.835 68.767a.138.138 0 0 0 .111-.056h.111a.89.89 0 0 0-.175-.421.731.731 0 0 0-.048.477z" class="cls-2" transform="translate(-13.831 -14.12)"/><path id="Path_608" d="M56 87.145c.143-.175.413-.175.461-.477a.612.612 0 0 0-.461 0z" class="cls-2" transform="translate(-13.663 -17.882)"/><path id="Path_609" d="M52.22 66.427c0 .215.048.453.238.437.032-.302-.015-.501-.238-.437z" class="cls-2" transform="translate(-12.888 -13.735)"/><path id="Path_610" d="M56.355 83c-.175 0-.175.223-.175.461l.143-.048a1.319 1.319 0 0 0 .032-.413z" class="cls-2" transform="translate(-13.7 -17.139)"/><path id="Path_611" d="M54.1 68.485c-.294 0-.167.652-.509.612s-.23-.62-.477-.747l-.23.087c0 .294.318.572.405.842-.207 0-.238.246-.246.525a.453.453 0 0 1 .183.215l.334-.127V69.8a2.734 2.734 0 0 0 .54-1.315z" class="cls-2" transform="translate(-13.023 -14.132)"/><path id="Path_612" d="M54.2 80.17c0 .1-.079.143-.056.31a.3.3 0 0 0 .286.072c.021-.252-.059-.382-.23-.382z" class="cls-2" transform="translate(-13.283 -16.558)"/><path id="Path_613" d="M53.937 74.914a1.113 1.113 0 0 0 .183.795c.079-.151.326-.064.437-.175a.556.556 0 0 0-.1-.485l-.477-.159z" class="cls-2" transform="translate(-13.237 -15.474)"/><path id="Path_614" d="M55.989 75.8a1.009 1.009 0 0 1-.469.477v.23c.191 0 .27-.191.517-.159-.08-.27.071-.389-.048-.548z" class="cls-2" transform="translate(-13.565 -15.661)"/><path id="Path_615" d="M50.568 65.11c-.27.342-.223.985-.588 1.216l.445.223a2.027 2.027 0 0 0 .143-1.439z" class="cls-2" transform="translate(-12.428 -13.467)"/><path id="Path_616" d="M49.236 65.479a2.138 2.138 0 0 0-.3-1.24.842.842 0 0 1 .429-.795c.087.151.135.342.318.342.159-.151.127-.58.119-.962-.27 0-.572-.048-.683.175a1.661 1.661 0 0 1-.151-.9l-.334-.159c-.119-.072-.238-.143-.35-.223.4.731.723 1.59-.1 2.035-.175 0-.262-.326-.437-.087.207.381.66.731.532 1.311.313.146.631.324.957.503z" class="cls-2" transform="translate(-11.97 -12.771)"/><path id="Path_617" d="M58.579 57.37a5.262 5.262 0 0 0-.429.874c0 .087.119.1.183.143h.509a1.288 1.288 0 0 1-.263-1.017z" class="cls-2" transform="translate(-14.105 -11.878)"/><path id="Path_618" d="M57.7 58.08c-.1-.087-.1-.326-.31-.262a.85.85 0 0 0-.191.58l.4.04a3.028 3.028 0 0 1 .101-.358z" class="cls-2" transform="translate(-13.909 -11.968)"/><path id="Path_619" d="M58.706 56.2a.723.723 0 0 0-.556-.7c0 .405.31.31.246.795a.31.31 0 0 0 .31-.1z" class="cls-2" transform="translate(-14.105 -11.494)"/><path id="Path_620" d="M55.67 58.3h.1a.175.175 0 0 0-.056-.072.539.539 0 0 1-.044.072z" class="cls-2" transform="translate(-13.596 -12.055)"/><path id="Path_621" d="M50.33 55.75c.04.064.342.2.374 0-.1-.143-.167-.35-.374-.35z" class="cls-2" transform="translate(-12.5 -11.474)"/><path id="Path_622" d="M50.289 53.176c-.238-.072-.683-.238-.739.175.254.151.437.429.795.429a.882.882 0 0 0-.064.445c.564-.08-.055-.625.008-1.049z" class="cls-2" transform="translate(-12.34 -10.998)"/><path id="Path_623" d="M49.844 70.18c-.151.2-.1.691-.072 1.049h.191c-.016-.445.072-.929-.119-1.049z" class="cls-2" transform="translate(-12.379 -14.507)"/><path id="Path_624" d="M48.347 62.671a.31.31 0 0 0-.437.183c.072.207.421.183.437-.183z" class="cls-2" transform="translate(-12.003 -12.959)"/><path id="Path_625" d="M47.637 64.56c-.215.111-.223 0-.429.087a.469.469 0 0 0 .056.318l.1.056a.5.5 0 0 1 .223.064c-.013-.175.098-.263.05-.525z" class="cls-2" transform="translate(-11.857 -13.354)"/><path id="Path_626" d="M55.091 78.18c.119-.175-.064-.35-.064-.612-.111.04-.374-.119-.31.175.151.103.083.532.374.437z" class="cls-2" transform="translate(-13.398 -16.022)"/><path id="Path_627" d="M59.244 82.431a.421.421 0 0 0-.191-.111l-.143.238z" class="cls-2" transform="translate(-14.261 -16.999)"/><path id="Path_628" d="M94.38 61.388c.04.215.079.405.246.437 0-.254-.016-.493-.246-.437z" class="cls-2" transform="translate(-21.541 -12.701)"/><path id="Path_629" d="M90.235 39.556c.079-.374-.334-.556-.405-.238.079.151.135.31.405.238z" class="cls-2" transform="translate(-20.607 -8.14)"/><path id="Path_630" d="M89.05 61.7l.5.1a.6.6 0 0 0-.5-.1z" class="cls-2" transform="translate(-20.447 -12.763)"/><path id="Path_631" d="M90.767 81.012c.087-.119.1-.525-.056-.532-.095.12-.111.532.056.532z" class="cls-2" transform="translate(-20.773 -16.621)"/><path id="Path_632" d="M93.75 62.27c.087.5-.318.31-.31.707a.159.159 0 0 1 .064.079l.54.286a.421.421 0 0 0 .087-.191c-.294-.229.032-.794-.381-.881z" class="cls-2" transform="translate(-21.348 -12.884)"/><path id="Path_633" d="M93.61 73v.35c.31.115.215-.473 0-.35z" class="cls-2" transform="translate(-21.383 -15.082)"/><path id="Path_634" d="M91.9 80.633c.072.1.215.1.374.087.095-.461-.39-.437-.374-.087z" class="cls-2" transform="translate(-21.032 -16.599)"/><path id="Path_635" d="M93.4 52.668c.072-.127.159-.2.3-.1.087-.111.048-.4.056-.628-.223 0-.5-.429-.58-.23.278.119.111.493.294.477a2.828 2.828 0 0 0-.254.4z" class="cls-2" transform="translate(-21.294 -10.705)"/><path id="Path_636" d="M92 62a.509.509 0 0 1 .556 0v-.135c.04 0 .072 0 .064-.1a.866.866 0 0 1-.556-.429A3.564 3.564 0 0 0 92 62z" class="cls-2" transform="translate(-21.052 -12.693)"/><path id="Path_637" d="M93.515 50.267c-.056-.135-.111-.27-.286-.238 0 .525-.087.35-.119.874a.7.7 0 0 0 .405-.636z" class="cls-2" transform="translate(-21.28 -10.371)"/><path id="Path_638" d="M92.348 60.668a.588.588 0 0 0 .374-.612c-.151-.111-.6-.056-.691.183.126.119.078.476.317.429z" class="cls-2" transform="translate(-21.058 -12.418)"/><path id="Path_639" d="M92.326 62.646c0-.223-.191-.262-.3-.366a.358.358 0 0 0-.064.215z" class="cls-2" transform="translate(-21.044 -12.886)"/><path id="Path_640" d="M92.955 69.584a3.378 3.378 0 0 0-.429-.254l-.246-.079c-.231.468.564 1.088.675.333z" class="cls-2" transform="translate(-21.101 -14.317)"/><path id="Path_641" d="M103.084 45.974c-.135 0-.167-.143-.342-.087s-.191.445-.064.636c.239-.096.461-.144.406-.549z" class="cls-2" transform="translate(-23.227 -9.519)"/><path id="Path_642" d="M100.223 43.29c-.087.111-.1.429.056.437.087-.111.103-.437-.056-.437z" class="cls-2" transform="translate(-22.727 -8.988)"/><path id="Path_643" d="M108.57 48.318h.151a.66.66 0 0 1 .215 0h.151c0-.183-.119-.151-.119-.318-.144.1-.311.159-.398.318z" class="cls-2" transform="translate(-24.453 -9.955)"/><path id="Path_644" d="M109.906 55.574c-.159-.429-.795-.278-.866.159.31.207.413-.469.866-.159z" class="cls-2" transform="translate(-24.55 -11.457)"/><path id="Path_645" d="M106.7 56.014c.23 0 .175-.405.469-.326.35.413.389 1.264 1.041 1.264.159.262.064.445.286.548.207-.3-.207-.238-.167-.548s.27-.207.23-.548-.358-.413-.35-.866c-.413.119-.54-.143-.683-.389l-.548-.048a1.59 1.59 0 0 0-.278.913z" class="cls-2" transform="translate(-24.069 -11.412)"/><path id="Path_646" d="M104.532 46.294a.8.8 0 0 0-.469-.087.922.922 0 0 0-.056.477 2.035 2.035 0 0 0 1.59 0c.111-.056 0-.437.111-.477s.159.366.294.477c.318-.04.477-.31.795-.4-.056-.278.087-.31.056-.556-.278-.111-.119.366-.342.326-.453-.191-.723-.445-1.216-.4a5.142 5.142 0 0 1-.056 1.025c-.3-.215-.238-.795-.405-1.025-.27.06-.04.553-.302.64z" class="cls-2" transform="translate(-23.515 -9.473)"/><path id="Path_647" d="M95.276 41.137c-.366-.127-.342-.795-.572-1.1-.1.143-.246.2-.294.4.35.056.19 1.063.866.7z" class="cls-2" transform="translate(-21.547 -8.321)"/><path id="Path_648" d="M90.714 38.18c0 .143-.175.135-.119.389.223.079.747-.334 1.1-.087a.66.66 0 0 0 0-.31c-.4-.127-.795-.238-1.24-.342v.27c.005-.191.235-.016.259.08z" class="cls-2" transform="translate(-20.736 -7.868)"/><path id="Path_649" d="M92.516 38.558c-.1.127 0 .461-.286.4a3.306 3.306 0 0 1 .064 1.089c.183.1 0-.246.223-.151a3.768 3.768 0 0 1 .064.707c.1.135.334.064.517.079 0-.278-.1-.374-.111-.636-.143-.1-.238.238-.294 0 0-.1 0-.223.064-.238.286.2.612.159.636-.389-.175-.207-.223.223-.469.159a2.615 2.615 0 0 1-.286-.556c.23-.056.326.079.517.087 0-.2-.1-.175-.056-.4l-.127-.072-.175-.064a.62.62 0 0 0-.278-.016z" class="cls-2" transform="translate(-21.099 -8.015)"/><path id="Path_650" d="M89.586 40.106c0-.254 0-.477-.127-.556.047.183-.104.62.127.556z" class="cls-2" transform="translate(-20.53 -8.221)"/><path id="Path_651" d="M95.868 41.346a.278.278 0 0 1 .23.072c0-.191-.111-.167-.064-.4-.15-.018-.19.121-.166.328z" class="cls-2" transform="translate(-21.845 -8.522)"/><path id="Path_652" d="M95.8 70.84c0 .175-.111.3-.159.469.167.119.127.525.374.525.167-.3-.056-.636-.119-.874a.513.513 0 0 0 0-.056z" class="cls-2" transform="translate(-21.799 -14.643)"/><path id="Path_653" d="M99.63 73.4a2.3 2.3 0 0 0 .31 1.049c.2 0 .318-.485.437-.27-.072.2 0 .572-.183.62a.362.362 0 0 1-.437-.087c0 .4.23.366.183.795a1.224 1.224 0 0 0 1.06-1.15c.143.1.342 0 .461-.223a17.382 17.382 0 0 1-1.59-.795c-.034.073-.13.073-.241.061z" class="cls-2" transform="translate(-22.618 -15.156)"/><path id="Path_654" d="M96.987 62.379c-.127.326 0 .731.254.525-.095-.204-.055-.556-.254-.525z" class="cls-2" transform="translate(-22.066 -12.906)"/><path id="Path_655" d="M98.357 82.67a.978.978 0 0 0-.127.532c.1.159.207-.079.437 0a.8.8 0 0 1 0-.318z" class="cls-2" transform="translate(-22.331 -17.071)"/><path id="Path_656" d="M99.355 83.313l-.175-.1c.056.037.095.1.175.1z" class="cls-2" transform="translate(-22.526 -17.182)"/><path id="Path_657" d="M118.955 74.72c0 .1-.1.087-.175.079 0 .191.159.556.23.4-.11-.082.183-.368-.055-.479z" class="cls-2" transform="translate(-26.549 -15.439)"/><path id="Path_658" d="M120.079 52.55c.175.04.183-.167.175-.381-.175-.04-.191.167-.175.381z" class="cls-2" transform="translate(-26.814 -10.81)"/><path id="Path_659" d="M120.209 73c-.215.072-.588.381-.493.612.087-.23.278-.167.437-.087 0-.175.103-.225.056-.525z" class="cls-2" transform="translate(-26.738 -15.086)"/><path id="Path_660" d="M118.65 77.318l.326-.143a3.06 3.06 0 0 0-.1-.715 4.6 4.6 0 0 0-.23.858z" class="cls-2" transform="translate(-26.522 -15.796)"/><path id="Path_661" d="M119.679 76.57a1.518 1.518 0 0 1-.056.286.207.207 0 0 0-.1.048V77l.342-.175a.4.4 0 0 0-.186-.255z" class="cls-2" transform="translate(-26.701 -15.819)"/><path id="Path_662" d="M119.821 75.5c.3-.27.159-1.057-.191-1.144 0 .525-.525.381-.5.97.286-.06.318.274.691.174z" class="cls-2" transform="translate(-26.62 -15.365)"/><path id="Path_663" d="M118.2 76.98c-.342-.1-.31-.413-.358-.795a2.669 2.669 0 0 1 .342-.246c-.087-.644.151-.795.183-1.319-.23.151-.27.556-.62.532a.954.954 0 0 1-.079.747c-.127 0-.143.223-.334.175.246.429 0 .946.294 1.216l.572-.23z" class="cls-2" transform="translate(-26.251 -15.419)"/><path id="Path_664" d="M120.15 44.078c.207-.175.342-.445.691-.23.048-.223-.087-.207-.064-.4-.365.002-.508.312-.627.63z" class="cls-2" transform="translate(-26.83 -9.021)"/><path id="Path_665" d="M118.56 65.525c.135 0 .437.238.525.072-.1-.1-.1-.35-.175-.477-.152.087-.374.072-.35.405z" class="cls-2" transform="translate(-26.503 -13.469)"/><path id="Path_666" d="M120.168 83.271a.692.692 0 0 0-.079-.191l-.2.119c.088.096.211.135.279.072z" class="cls-2" transform="translate(-26.777 -17.155)"/><path id="Path_667" d="M93.83 40.879c.127.135.278.254.405.389a1.59 1.59 0 0 1 0-.858c-.27 0-.397.159-.405.469z" class="cls-2" transform="translate(-21.428 -8.397)"/><path id="Path_668" d="M97.636 65c-.2 0-.477-.087-.437.262.127.173.532.189.437-.262z" class="cls-2" transform="translate(-22.119 -13.442)"/><path id="Path_669" d="M98.675 74.718c.072-.4-.175-.342-.127-.7a.664.664 0 0 0-.683.175c-.342-.238-.111-.795-.254-1.224-.453.246.048 1.057-.119 1.486.2 0 .207.238.437.175s.087-.334.246-.35c0 .326.072.246 0 .525a.8.8 0 0 0 .5-.087z" class="cls-2" transform="translate(-22.164 -15.08)"/><path id="Path_670" d="M94.78 53.639l.389.23a.421.421 0 0 0 0-.31c-.127 0-.302-.023-.389.08z" class="cls-2" transform="translate(-21.623 -11.096)"/><path id="Path_671" d="M95 81.233h.31a1.009 1.009 0 0 0-.048-.381l-.2-.111c.002.206-.062.245-.062.492z" class="cls-2" transform="translate(-21.668 -16.675)"/><path id="Path_672" d="M94.939 72.471c.087 0 .151.127.246.167 0-.246 0-.469-.191-.429-.007.103-.071.111-.055.262z" class="cls-2" transform="translate(-21.655 -14.923)"/><path id="Path_673" d="M95.59 74.6l.6.366a5.561 5.561 0 0 1-.207-.914 1.041 1.041 0 0 0-.393.548z" class="cls-2" transform="translate(-21.789 -15.302)"/><path id="Path_674" d="M100.354 87.622c-.072-.1-.175-.079-.254 0l.215.1a.412.412 0 0 0 .039-.1z" class="cls-2" transform="translate(-22.715 -18.073)"/><path id="Path_675" d="M100.26 77.291l.294.135c0-.246 0-.5-.111-.6a3.083 3.083 0 0 0-.183.465z" class="cls-2" transform="translate(-22.748 -15.872)"/><path id="Path_676" d="M128.843 39.705c.072-.3.294-.4.4-.636-.296-.325-.694.437-.4.636z" class="cls-2" transform="translate(-28.593 -8.106)"/><path id="Path_677" d="M128.653 61.44c.064.35-.159.3-.183.54l.358-.111a.8.8 0 0 0 .079-.342c-.127.016-.135-.095-.254-.087z" class="cls-2" transform="translate(-28.538 -12.713)"/><path id="Path_678" d="M126.225 49.535c0 .191-.175-.087-.056-.159-.167-.064-.151.119-.294.079 0 .445.087.58-.056.866.144-.182.446-.595.406-.786z" class="cls-2" transform="translate(-27.994 -10.235)"/><path id="Path_679" d="M125.17 63.218v.223l.342-.175a.191.191 0 0 0-.342-.048z" class="cls-2" transform="translate(-27.86 -13.061)"/><path id="Path_680" d="M124.4 63.617c-.238-.223-.572-.135-.62.1.175 0 .215.135.262.286l.342-.2a1.209 1.209 0 0 0 .016-.183z" class="cls-2" transform="translate(-27.575 -13.134)"/><path id="Path_681" d="M124.879 70.887c.254.064.358-.079.31-.437-.159.103-.342.143-.31.437z" class="cls-2" transform="translate(-27.8 -14.563)"/><path id="Path_682" d="M108.911 67.65a.707.707 0 0 0-.064.437.31.31 0 0 0 .31-.087c-.008-.215-.087-.334-.246-.35z" class="cls-2" transform="translate(-24.508 -13.988)"/><path id="Path_683" d="M121.458 41.469a.6.6 0 0 0-.064-.389l-.215.135a.509.509 0 0 0 .279.254z" class="cls-2" transform="translate(-27.041 -8.535)"/><path id="Path_684" d="M118.813 42.631a.4.4 0 0 0 0 .286.262.262 0 0 0 .143-.024c.159-.04.159.135.334.079a.389.389 0 0 0-.167-.358.8.8 0 0 0 0-.135z" class="cls-2" transform="translate(-26.55 -8.822)"/><path id="Path_685" d="M118.4 46.378h.238a.6.6 0 0 0-.238-.548z" class="cls-2" transform="translate(-26.471 -9.51)"/><path id="Path_686" d="M130.76 40.57a1.081 1.081 0 0 1 .079.326h.151a.469.469 0 0 0-.23-.326z" class="cls-2" transform="translate(-29.008 -8.43)"/><path id="Path_687" d="M131.464 37.923c.254 0 .27-.31.525-.31 0 .294.1.413.286.469.087-.278.564-.342.35-.795-.262-.079-.191.262-.405.238a.548.548 0 0 1-.318-.207h-.437a.747.747 0 0 0-.001.605z" class="cls-2" transform="translate(-29.139 -7.754)"/><path id="Path_688" d="M133.046 57.87h-.636c.215.199.469.254.636 0z" class="cls-2" transform="translate(-29.346 -11.981)"/><path id="Path_689" d="M131.446 58.777v-.437h-.238c-.049.334.063.429.238.437z" class="cls-2" transform="translate(-29.097 -12.077)"/><path id="Path_690" d="M132.739 50.26c-.183 0-.254.175-.23.477.191-.008.222-.231.23-.477z" class="cls-2" transform="translate(-29.366 -10.419)"/><path id="Path_691" d="M133.58 37.266a1.494 1.494 0 0 0 .469.254 1.089 1.089 0 0 0 0-.27z" class="cls-2" transform="translate(-29.586 -7.749)"/><path id="Path_692" d="M134.236 40.215V40a.421.421 0 0 0 0 .215z" class="cls-2" transform="translate(-29.718 -8.313)"/><path id="Path_693" d="M133.09 50.56a2.536 2.536 0 0 0 .1.389h.175c-.037-.214-.076-.405-.275-.389z" class="cls-2" transform="translate(-29.486 -10.48)"/><path id="Path_694" d="M134.04 39.377c-.064-.048 0-.374-.23-.4v.389c.103-.066.199.242.23.011z" class="cls-2" transform="translate(-29.634 -8.104)"/><path id="Path_695" d="M133.59 40.458a.207.207 0 0 0 .175-.079c0 .119 0 .31.056.159a.684.684 0 0 1 0-.469c-.231-.056-.175.231-.231.389z" class="cls-2" transform="translate(-29.588 -8.326)"/><path id="Path_696" d="M111.432 68.429a.121.121 0 0 0-.111-.119.85.85 0 0 0-.056.151h-.048a.8.8 0 0 0 0 .27.341.341 0 0 0 .056.079h.374a1.646 1.646 0 0 1 .1-.342.382.382 0 0 0-.315-.039z" class="cls-2" transform="translate(-24.994 -14.124)"/><path id="Path_697" d="M110.742 78.341a1.407 1.407 0 0 1 .079-.89h.1c0-.532.278-.62.405-.946-.159-.159-.23 0-.413 0 0 .111.072.4 0 .4a1.226 1.226 0 0 0-.064-.151v.143c-.5-.079-.5-.461-.97-.54a1.526 1.526 0 0 1-.4.628v-.345a1.248 1.248 0 0 0 .532-.85h-.795a.525.525 0 0 1 0 .159l-.183.223c-.23-.056-.334-.278-.532-.381-.223.461-.572.691-.978.318-.159.27 0 .628.223.628s.087-.31.238-.318c.087.2.358.135.342.469a2.321 2.321 0 0 1-.167.636l.064.111a.747.747 0 0 0 .048.683c.127.1.223-.048.294-.072l.079.167v.135h.6q.93 0 1.764-.072a1.415 1.415 0 0 1-.215-.167z" class="cls-2" transform="translate(-24.225 -15.659)"/><path id="Path_698" d="M108.23 79.23h.2a.151.151 0 0 0-.2 0z" class="cls-2" transform="translate(-24.383 -16.357)"/><path id="Path_699" d="M108.7 66.312c.048-.27 0-.374-.23-.318-.111.2.167.421-.056.636-.1 0-.469-.262-.461.072.342.477 1.208-.3 1.272 1.025.064.191.262-.167.35.072a2.774 2.774 0 0 1-.747.477h1.065a1.3 1.3 0 0 0 .143-.389c-.119-.262-.358-.358-.342-.795.334.254.517-.119.747.159.318-.127.119-.683.286-.858a1.892 1.892 0 0 1 .461.628c.286-.223.795-.143.866-.636a4.681 4.681 0 0 1-1.327-.238 1.9 1.9 0 0 1-.175-.676h-.723a2.885 2.885 0 0 0 .262.795c-.456.094-.877.42-1.391.046z" class="cls-2" transform="translate(-24.326 -13.541)"/><path id="Path_700" d="M65.852 78.65a.564.564 0 0 0 0 .374l.58-.374c-.286.04-.342.278-.58 0z" class="cls-2" transform="translate(-15.679 -16.246)"/><path id="Path_701" d="M65.856 65.25c0 .223.048.453.246.437s.366-.191.564-.262a4.172 4.172 0 0 0-.429-.795l-.5.151a2.17 2.17 0 0 0-.437.842c.334.096.334-.31.556-.373z" class="cls-2" transform="translate(-15.572 -13.368)"/><path id="Path_702" d="M69.52 63.4c.262.238.318.135.62 0a1.8 1.8 0 0 0-.111-.517l-.485.27a1.128 1.128 0 0 0-.024.247z" class="cls-2" transform="translate(-16.438 -13.009)"/><path id="Path_703" d="M68.992 63.957c.064-.143.2-.191.183-.445a.27.27 0 0 1-.111-.072l-.334.175a1.1 1.1 0 0 0 .262.342z" class="cls-2" transform="translate(-16.276 -13.124)"/><path id="Path_704" d="M67.789 65c.04.4.191.135.429.175.079-.191.079-.485.254-.525 0 .151.1.2.246.175.1-.175 0-.564-.064-.795-.286-.1-.238.238-.493.175v-.35l-.254.111a2.082 2.082 0 0 0-.31 1.59c.311.092.003-.556.192-.556z" class="cls-2" transform="translate(-16.035 -13.21)"/><path id="Path_705" d="M69.72 49.658a.922.922 0 0 0 0-.318 1.456 1.456 0 0 1-.072.31c-.023.103.052.016.072.008z" class="cls-2" transform="translate(-16.464 -10.23)"/><path id="Path_706" d="M66.7 47.517v.048l.318-.1a.238.238 0 0 0-.318.052z" class="cls-2" transform="translate(-15.86 -9.838)"/><path id="Path_707" d="M70.341 38.38c0 .1-.072.135-.1.2s.048.294.064.437a.159.159 0 0 1 .079 0v-.143h.27c.005-.311-.106-.474-.313-.494z" class="cls-2" transform="translate(-16.584 -7.981)"/><path id="Path_708" d="M65.84 47.536v.223h.127c0-.159 0-.278-.127-.223z" class="cls-2" transform="translate(-15.683 -9.857)"/><path id="Path_709" d="M72.3 84.662c0-.413-.143-.612-.437-.612-.223.389.167.93.437.612z" class="cls-2" transform="translate(-16.906 -17.354)"/><path id="Path_710" d="M71.328 86.145c-.342-.127-.413.405-.318.676l.318-.183a.564.564 0 0 0 0-.493z" class="cls-2" transform="translate(-16.736 -17.78)"/><path id="Path_711" d="M71.792 72.562c-.111-.175-.1.048-.3 0a.468.468 0 0 0 .183.437c.025-.166.173-.158.117-.437z" class="cls-2" transform="translate(-16.843 -14.982)"/><path id="Path_712" d="M71.17 73.46a.612.612 0 0 0 .5.612c-.031-.397-.182-.62-.5-.612z" class="cls-2" transform="translate(-16.777 -15.181)"/><path id="Path_713" d="M69.14 76.22c-.183.4-.4.318-.62.525a5.078 5.078 0 0 1 .079.795c.31-.127.6-.254.89-.389a.406.406 0 0 0 0-.1 1.1 1.1 0 0 0-.349-.831z" class="cls-2" transform="translate(-16.233 -15.747)"/><path id="Path_714" d="M67.5 54.107a1.8 1.8 0 0 1 0-.207l-.262.1a.334.334 0 0 0 .262.1z" class="cls-2" transform="translate(-15.97 -11.166)"/><path id="Path_715" d="M67.33 57.14v.517c.278.079.199-.525 0-.517z" class="cls-2" transform="translate(-15.989 -11.831)"/><path id="Path_716" d="M70.161 43.34c-.191 0-.2.191-.183.445.199.024.322-.238.183-.445z" class="cls-2" transform="translate(-16.531 -8.999)"/><path id="Path_717" d="M68.206 46.5c-.326 0-.58.1-.636.469a.517.517 0 0 0 .04.175l.62-.246a1.987 1.987 0 0 1-.024-.398z" class="cls-2" transform="translate(-16.038 -9.647)"/><path id="Path_718" d="M66.843 59c0 .119-.079.127-.064.27s.23.207.35.31l.2-.278c-.144-.064-.271-.191-.486-.302z" class="cls-2" transform="translate(-15.875 -12.213)"/><path id="Path_719" d="M67.6 77.049c0-.246.167-.326.223-.525a.326.326 0 0 0 .249-.524c-.159 0-.23.135-.246.35a.6.6 0 0 0-.715.612c.089.138.317.079.489.087z" class="cls-2" transform="translate(-15.944 -15.702)"/><path id="Path_720" d="M66.863 73.577a.5.5 0 0 0 0 .493.23.23 0 0 0-.056.2c.056 0 .079.079.072.175.111 0 .135-.1.246-.079s0 .167.064.175c0-.278-.064-.326-.064-.525a.541.541 0 0 0-.2 0c.048-.1.151-.127.167-.278-.134.005-.062-.233-.229-.161z" class="cls-2" transform="translate(-15.88 -15.202)"/><path id="Path_721" d="M84.39 79.607a.318.318 0 0 0 .31-.437c-.207.008-.151.374-.31.437z" class="cls-2" transform="translate(-19.49 -16.353)"/><path id="Path_722" d="M86.84 58.1a.54.54 0 0 1-.556 0 .668.668 0 0 1-.064.429c.127.191.405.143.564.262-.039-.262.191-.453.056-.691z" class="cls-2" transform="translate(-19.866 -12.028)"/><path id="Path_723" d="M70.806 42c-.167 0-.127.294-.127.525.215 0 .262.215.437.262-.087-.262-.024-.787-.31-.787z" class="cls-2" transform="translate(-16.675 -8.724)"/><path id="Path_724" d="M86 50.26a2.9 2.9 0 0 1 .127.636h.1c.035-.31.043-.596-.227-.636z" class="cls-2" transform="translate(-19.821 -10.419)"/><path id="Path_725" d="M86.259 68.18a1.4 1.4 0 0 0-.469.493c.127 0 .119.238.246.262.1-.111 0-.525.191-.525 0 .143.167.048.183.167.079.405-.215.278-.246.532.167 0 .064.374.31.262-.111-.715.35-.628.366-1.152z" class="cls-2" transform="translate(-19.778 -14.097)"/><path id="Path_726" d="M73.106 41.962a.413.413 0 0 0 .366-.612c-.192.087-.454.381-.366.612z" class="cls-2" transform="translate(-17.171 -8.59)"/><path id="Path_727" d="M74 43.886a1.057 1.057 0 0 1 0 .151l.2-.127a.2.2 0 0 0-.2-.024z" class="cls-2" transform="translate(-17.358 -9.107)"/><path id="Path_728" d="M73 40.8h.31a.4.4 0 0 0-.079-.405l-.23.143A.54.54 0 0 0 73 40.8z" class="cls-2" transform="translate(-17.148 -8.393)"/><path id="Path_729" d="M74.68 50.4v.477c.159 0 .238-.127.246-.35-.087-.066-.119-.169-.246-.127z" class="cls-2" transform="translate(-17.497 -10.445)"/><path id="Path_730" d="M71.684 41.79c-.087.119-.1.437.056.445.023-.207.135-.381-.056-.445z" class="cls-2" transform="translate(-16.87 -8.681)"/><path id="Path_731" d="M70.353 49.63a2.115 2.115 0 0 1-.254.795c.056-.374-.238.119-.246-.262 0-.143.159-.072.127-.27-.191.064-.119-.238-.31-.167-.048.358.079.731 0 .866l-.3-.215c-.1.342-.207.683-.318 1.025a1.987 1.987 0 0 0 .755.111c.079-.127.064-.389.246-.35.048-.159-.064-.517.072-.532a1.152 1.152 0 0 0 .509 0 .248.248 0 0 0 .23.23.8.8 0 0 0 .056-.31l.1-.064a1.246 1.246 0 0 1 .064-.23c-.127-.492-.548-.157-.731-.627z" class="cls-2" transform="translate(-16.342 -10.29)"/><path id="Path_732" d="M70.819 48.853a1.025 1.025 0 0 1 0-.374.286.286 0 0 0 0-.079.548.548 0 0 0-.087-.453.087.087 0 0 0 0 .056c-.1-.3-.207-.572-.318-.842h-.23a1.045 1.045 0 0 1-.064.437 3.449 3.449 0 0 0 .517.676 1.916 1.916 0 0 1 0 .548c.223.056.294.326.469.461.055-.367-.287-.208-.287-.43z" class="cls-2" transform="translate(-16.561 -9.783)"/><path id="Path_733" d="M72.249 41.771a.286.286 0 0 0 .31.079 2.257 2.257 0 0 0 .064-.612c-.287-.048-.406.135-.374.533z" class="cls-2" transform="translate(-16.997 -8.566)"/><path id="Path_734" d="M72.086 46.1a.2.2 0 0 0 .223.072 1.613 1.613 0 0 1 .056-.509c-.144.076-.35.076-.279.437z" class="cls-2" transform="translate(-16.962 -9.475)"/><path id="Path_735" d="M80.852 32.657a1.43 1.43 0 0 0-.23-.707.389.389 0 0 1-.342.087c.056.175.1.35.151.532a.874.874 0 0 0 .421.087z" class="cls-2" transform="translate(-18.647 -6.661)"/><path id="Path_736" d="M81.1 31.935c.119.04.485.087.572-.159-.089-.397-.804-.413-.572.159z" class="cls-2" transform="translate(-18.805 -6.566)"/><path id="Path_737" d="M81.61 47.007c0-.151.072-.175.064-.318a.485.485 0 0 0-.1 0v.35z" class="cls-2" transform="translate(-18.912 -9.686)"/><path id="Path_738" d="M81.657 39.752c-.127-.151-.413-.04-.4.23.209.041.392.018.4-.23z" class="cls-2" transform="translate(-18.848 -8.248)"/><path id="Path_739" d="M76.994 71.862c.294.119.374-.318.246-.525-.302-.071-.294.215-.246.525z" class="cls-2" transform="translate(-17.967 -14.743)"/><path id="Path_740" d="M75.59 52.414c.191.087.223.389.366.54l.2-.1c.006-.377-.439-.718-.566-.44z" class="cls-2" transform="translate(-17.684 -10.84)"/><path id="Path_741" d="M77.56 39v.262c.1.056.159.135.246.175.024-.278-.016-.437-.246-.437z" class="cls-2" transform="translate(-18.088 -8.108)"/><path id="Path_742" d="M78.6 81.191a.35.35 0 0 0 .318.087c.133-.508-.4-.603-.318-.087z" class="cls-2" transform="translate(-18.3 -16.697)"/><path id="Path_743" d="M79.193 80.08c.389-.1.342-.795.548-1.2q-.691.143-1.311.31c.2.175.374.405.7.366-.048.27.063.325.063.524z" class="cls-2" transform="translate(-18.267 -16.293)"/><path id="Path_744" d="M78.51 65.843a.556.556 0 0 0 .461.119l.072-.1c-.143-.154-.477-.353-.533-.019z" class="cls-2" transform="translate(-18.283 -13.58)"/><path id="Path_745" d="M64.07 75.506a2.284 2.284 0 0 0 0-.246 3.181 3.181 0 0 1-.27.183.254.254 0 0 0 .27.063z" class="cls-2" transform="translate(-15.264 -15.55)"/><path id="Path_746" d="M75.17 60.146a.874.874 0 0 0 0-.246l-.23.119a.207.207 0 0 0 .23.127z" class="cls-2" transform="translate(-17.551 -12.398)"/><path id="Path_747" d="M74.8 52.251c.159-.127.405-.127.572-.246-.119-.31-.54-.032-.572.246z" class="cls-2" transform="translate(-17.522 -10.749)"/><path id="Path_748" d="M76.624 68.7c-.223.119-.31.453-.374.795.318.005.381-.342.374-.795z" class="cls-2" transform="translate(-17.82 -14.204)"/><path id="Path_749" d="M75.5 84.215l.668-.366a.747.747 0 0 0-.668.366z" class="cls-2" transform="translate(-17.666 -17.313)"/><path id="Path_750" d="M71.71 55.316c.056 0 .143.1.23.143l.223-.135c-.111-.167-.397-.294-.453-.008z" class="cls-2" transform="translate(-16.888 -11.422)"/><path id="Path_751" d="M72.051 62.886c-.119-.342-.9-.652-1.121-.262a2.082 2.082 0 0 0 1.121.262z" class="cls-2" transform="translate(-16.728 -12.919)"/><path id="Path_752" d="M71.734 53.329a1.5 1.5 0 0 0 .048-1.049c-.421 0-.485.127-.747 0a.7.7 0 0 0 .7 1.049z" class="cls-2" transform="translate(-16.729 -10.834)"/><path id="Path_753" d="M72.961 70.564c.159-.127 0-.564-.127-.525.016.175-.119.604.127.525z" class="cls-2" transform="translate(-17.114 -14.478)"/><path id="Path_754" d="M72.871 67.61H72.7c-.1.135-.215.262-.326.389a.556.556 0 0 0 .5-.389z" class="cls-2" transform="translate(-17.023 -13.98)"/><path id="Path_755" d="M73.572 50.47l-.223.135a.358.358 0 0 0 0 .1h.175a1.192 1.192 0 0 0 0 .5c.207 0 .207-.366.079-.5z" class="cls-2" transform="translate(-17.224 -10.462)"/><path id="Path_756" d="M70.616 55.187c.238-.064.215 0 .366-.1 0-.334 0-.54-.183-.612-.159.108-.23.325-.183.712z" class="cls-2" transform="translate(-16.66 -11.285)"/><path id="Path_757" d="M76.527 67.156c-.278-.072-.389.1-.437.35.167.182.461-.001.437-.35z" class="cls-2" transform="translate(-17.787 -13.883)"/><path id="Path_758" d="M75.56 81.982c.254 0 .636.159.429-.262-.079.223-.429-.207-.429.262z" class="cls-2" transform="translate(-17.678 -16.876)"/><path id="Path_759" d="M76.743 52.042c.31-.04.366-.62.183-.882-.278.008-.556.747-.183.882z" class="cls-2" transform="translate(-17.884 -10.604)"/><path id="Path_760" d="M114.37 85.593a1.184 1.184 0 0 0 .509.4c.1-.064 0-.389.175-.318.191.612 1.59.795 1.208-.159a.4.4 0 0 1-.4.318.8.8 0 0 0-.254-.493.238.238 0 0 1 .1 0 .215.215 0 0 0-.079-.2 11.065 11.065 0 0 1-1.129.334z" class="cls-2" transform="translate(-25.644 -17.578)"/><path id="Path_761" d="M107.1 76.721c0-.286-.27-.238-.4-.381a.469.469 0 0 1-.056.3c.284.018.197.225.456.081z" class="cls-2" transform="translate(-24.059 -15.772)"/><path id="Path_762" d="M105.64 67.658v.437c.286.087.286-.525 0-.437z" class="cls-2" transform="translate(-23.852 -13.988)"/><path id="Path_763" d="M118.024 86.61c-.191.207-.326.334-.5.35.056.3-.087.342-.064.612.191.064.119.064.318 0-.136-.565.373-.652.246-.962z" class="cls-2" transform="translate(-26.277 -17.88)"/><path id="Path_764" d="M117.3 75.22c-.135.119-.167.6 0 .707 0-.3.27-.215.238-.548-.086-.04-.15-.119-.238-.159z" class="cls-2" transform="translate(-26.222 -15.542)"/><path id="Path_765" d="M116.592 76.579c-.159-.2-.318 0-.342.238.127.175.358.032.342-.238z" class="cls-2" transform="translate(-26.029 -15.804)"/><path id="Path_766" d="M114.526 75.836c-.381-.191-.278.119-.525.238a.143.143 0 0 1-.056 0 .183.183 0 0 0-.087-.087c-.1-.151-.167-.342-.381-.35a.652.652 0 0 0 .048.389.255.255 0 0 0 .4.246c.1.207.35.215.54.31-.183.93.612.795 1.089.795.175-.795-.254-1.041 0-1.725-.35.056-.469.453-.628.795-.183 0-.207.151-.4.087 0-.079-.056-.1-.064-.159-.064-.556.294-.54.342-.938a.389.389 0 0 0-.056-.238l-.485.127c.072.16.237.24.263.51z" class="cls-2" transform="translate(-25.458 -15.538)"/><path id="Path_768" d="M104.91 85.78a.978.978 0 0 0 .167.946c-.127.548-.3 1.486-.93 1.049.3-.509-.262-1.009.064-1.494-.636-.127-.715.795-1.176.62 0 .842-.477.795-.795 1.049a16.071 16.071 0 0 0 2.718.644.374.374 0 0 0 .111-.207c.087.175.278.191.437.262.111-.223.429-.159.374-.612a.521.521 0 0 1-.429-.175c0-.795-.056-1.144 0-1.836-.191-.087-.2-.087-.381 0a.493.493 0 0 0 .056-.207z" class="cls-2" transform="translate(-23.154 -17.709)"/><path id="Path_769" d="M105.34 76.488c0 .191.079.366.23.389 0-.246.159-.262.111-.548-.181-.029-.222.111-.341.159z" class="cls-2" transform="translate(-23.79 -15.769)"/><path id="Path_770" d="M106.084 78.461c-.119-.1-.334-.072-.469-.151 0 .1-.072.111-.056.238.175-.008.461.231.525-.087z" class="cls-2" transform="translate(-23.835 -16.176)"/><path id="Path_771" d="M105 87.185a.279.279 0 0 0 .175-.445c-.135-.008-.175.207-.175.445z" class="cls-2" transform="translate(-23.72 -17.906)"/><path id="Path_772" d="M104.46 66.74c0 .191.048.4.23.389.11-.182-.071-.365-.23-.389z" class="cls-2" transform="translate(-23.61 -13.801)"/><path id="Path_773" d="M104.191 65.68a2.781 2.781 0 0 1-.191.437c.23.127.342-.326.191-.437z" class="cls-2" transform="translate(-23.515 -13.584)"/><path id="Path_774" d="M104.854 75.324l-.254-.064a.437.437 0 0 0 .254.064z" class="cls-2" transform="translate(-23.638 -15.55)"/><path id="Path_775" d="M105.755 66c0 .1-.072.111-.056.238.286 0 .334.532.628.31-.095-.278-.214-.548-.572-.548z" class="cls-2" transform="translate(-23.863 -13.649)"/><path id="Path_776" d="M103.85 75.644c.127 0 .087.246.254.183a.8.8 0 0 0 .056-.437.342.342 0 0 0-.31.254z" class="cls-2" transform="translate(-23.484 -15.577)"/><path id="Path_777" d="M111.537 86.825c0-.151-.064-.175-.056-.318-.278-.064-.358.143-.461.318.127.238.358.119.517 0z" class="cls-2" transform="translate(-24.956 -17.856)"/><path id="Path_778" d="M113.55 66.838c.143.191.278-.079.517 0a2.234 2.234 0 0 0 .119-.469c-.111 0-.127-.056-.064-.159-.322.032-.397.405-.572.628z" class="cls-2" transform="translate(-25.475 -13.693)"/><path id="Path_779" d="M108.55 89.388a1.057 1.057 0 0 1 0 .159h.183c-.024-.111-.072-.191-.183-.159z" class="cls-2" transform="translate(-24.449 -18.448)"/><path id="Path_780" d="M117 46.663c.334.2.58-.35.747-.636-.286-.079-.612.35-.747.636z" class="cls-2" transform="translate(-26.183 -9.548)"/><path id="Path_781" d="M118.15 64.12c-.159-.207-.286.072-.461.079a.62.62 0 0 0 .056.318c.246.017.23-.317.405-.397z" class="cls-2" transform="translate(-26.324 -13.248)"/><path id="Path_782" d="M115.776 65.32c0 .278-.167.294-.127.612.174-.016.351-.54.127-.612z" class="cls-2" transform="translate(-25.905 -13.51)"/><path id="Path_783" d="M110.982 89.277c-.072 0-.079.127-.064.238h.2c.015-.159-.033-.294-.136-.238z" class="cls-2" transform="translate(-24.934 -18.424)"/><path id="Path_784" d="M109.914 86.817c-.389 0-.556-.381-.707-.707H109a1.224 1.224 0 0 0 .866.954.453.453 0 0 1 .048-.246z" class="cls-2" transform="translate(-24.541 -17.777)"/><path id="Path_785" d="M109.25 89.079c.191.119.366.072.381-.262-.19-.246-.309.083-.381.262z" class="cls-2" transform="translate(-24.593 -18.314)"/><path id="Path_786" d="M123.7 84.947l.175-.111a.278.278 0 0 1 0-.087c-.075-.032-.143.063-.175.198z" class="cls-2" transform="translate(-27.559 -17.496)"/><path id="Path_787" d="M123.54 63.66c-.159 0-.191.135-.31.175a1.367 1.367 0 0 1 .151.532l.278-.167a.477.477 0 0 1-.119-.54z" class="cls-2" transform="translate(-27.462 -13.169)"/><path id="Path_788" d="M123.4 72.931c.183 0 .405.056.366-.262a.314.314 0 0 0-.366.262z" class="cls-2" transform="translate(-27.497 -15.018)"/><path id="Path_789" d="M123.509 81.31c-.469.151-.795 1.979.072 1.836-.096-.684.444-1.494-.072-1.836z" class="cls-2" transform="translate(-27.423 -16.792)"/><path id="Path_790" d="M123.4 84.5c0-.246-.064-.493-.31-.445 0 .334.072.254 0 .532.151.036.135-.155.31-.087z" class="cls-2" transform="translate(-27.433 -17.355)"/><path id="Path_791" d="M124.155 82.009a5.5 5.5 0 0 1 .127-.7c-.27-.015-.27.47-.127.7z" class="cls-2" transform="translate(-27.632 -16.792)"/><path id="Path_792" d="M89.8 40.686h.405a.485.485 0 0 1 .175-.4c.183 0 .151.215.286.238a.858.858 0 0 0-.056-.477c-.191.31-.858-.207-.922.405.081.011.066.17.112.234z" class="cls-2" transform="translate(-20.578 -8.323)"/><path id="Path_793" d="M90.49 58.5v-.056l-.23-.056a.207.207 0 0 0 .23.112z" class="cls-2" transform="translate(-20.695 -12.088)"/><path id="Path_794" d="M87.48 69.565c0-.23.238-.127.254-.358a.382.382 0 0 0-.326-.079c-.008.206-.126.372.072.437z" class="cls-2" transform="translate(-20.101 -14.29)"/><path id="Path_795" d="M87.619 78.779a1.481 1.481 0 0 1 .079-.2h-.278a.556.556 0 0 0 .2.2z" class="cls-2" transform="translate(-20.112 -16.231)"/><path id="Path_796" d="M87.326 50.92a.278.278 0 0 0-.056.183h.27a.231.231 0 0 0-.214-.183z" class="cls-2" transform="translate(-20.081 -10.554)"/><path id="Path_797" d="M90.623 71.647c.119 0-.246.461.064.525-.024-.303.103-.724-.064-.525z" class="cls-2" transform="translate(-20.756 -14.798)"/><path id="Path_798" d="M106.94 79.109h.485a.572.572 0 0 0 0-.262.413.413 0 0 0-.485.262z" class="cls-2" transform="translate(-24.119 -16.284)"/><path id="Path_799" d="M108.054 77.47c-.238.048-.374.23-.374.612h.32c-.018-.27.212-.389.054-.612z" class="cls-2" transform="translate(-24.27 -16.004)"/><path id="Path_800" d="M106.5 75.631a13.344 13.344 0 0 1-1.232-.191c-.334 0-.636 0-.691.4a1.645 1.645 0 0 1 .405.151 1.526 1.526 0 0 1 .35-.389 1.222 1.222 0 0 0 .064.151c.167.048.318-.366.437-.1-.111.143-.334.119-.254.525a.334.334 0 0 1 .238 0c.1.167.294.445.382.334a.087.087 0 0 1-.048-.111h.056a.89.89 0 0 0 0-.159.174.174 0 0 1 .119-.143.27.27 0 0 1-.064-.159.079.079 0 0 0 .087 0c-.005-.055.083-.158.151-.309z" class="cls-2" transform="translate(-23.634 -15.587)"/><path id="Path_801" d="M107.269 58.5a.27.27 0 0 0 0 .1h.183c-.064-.06-.112-.108-.183-.1z" class="cls-2" transform="translate(-24.185 -12.11)"/><path id="Path_802" d="M112.453 88.918c0-.079.278 0 .35-.238a.429.429 0 0 0-.405-.389c.039.19-.08.563.055.627z" class="cls-2" transform="translate(-25.236 -18.224)"/><path id="Path_803" d="M110.529 86.257a.366.366 0 0 0-.191 0 .8.8 0 0 0 .072.445c.207.056.223-.151.246-.358a.333.333 0 0 0-.111-.072c.159-.072.127.127.215.159 0-.215.215-.072.23-.238a.214.214 0 0 1-.056-.1h-.342a.183.183 0 0 0-.064.167z" class="cls-2" transform="translate(-24.815 -17.773)"/><path id="Path_804" d="M111.706 88.109a.922.922 0 0 1 .064-.477.405.405 0 0 1-.159-.127.23.23 0 0 0-.374 0 1.009 1.009 0 0 0 0 .159 2 2 0 0 1-.795.23c-.159.493-.238.715-.572.866a.906.906 0 0 0 .087.405h.485a2.431 2.431 0 0 0-.056-.429c.1 0 .223 0 .246-.087a.111.111 0 0 1-.064-.119c.127-.215.215-.493.445-.318-.262.064 0 1.081.23.707-.143 0-.119-.262-.119-.469.224-.142.439-.166.582-.341z" class="cls-2" transform="translate(-24.72 -18.044)"/><path id="Path_805" d="M103.37 56.966c.207 0 .23.318.517.238-.016-.158-.445-.579-.517-.238z" class="cls-2" transform="translate(-23.386 -11.769)"/><path id="Path_806" d="M107.255 57.508c-.079-.1-.405-.151-.405.079.1.072.151.223.35.159a.477.477 0 0 1 .056-.238z" class="cls-2" transform="translate(-24.1 -11.889)"/><path id="Path_807" d="M106.551 47.99a.93.93 0 0 0-.056-.525.246.246 0 0 0-.31.127c-.2 0-.3.119-.286.4a.135.135 0 0 1 .167.056h.254v-.087z" class="cls-2" transform="translate(-23.905 -9.842)"/><path id="Path_808" d="M105.4 54.843l-.525-.1a4.077 4.077 0 0 1-.064.564 1.327 1.327 0 0 0 .588-.461z" class="cls-2" transform="translate(-23.681 -11.338)"/><path id="Path_809" d="M104.09 56.525c.1.079.35.3.405 0-.047-.08-.365-.175-.405 0z" class="cls-2" transform="translate(-23.534 -11.684)"/><path id="Path_810" d="M104.069 65.231c.334-.127.54-.127.683.262.254-.183.326-.318.62-.087.048-.087.1-.167.135-.254a14.47 14.47 0 0 1-1.478-.342 1.327 1.327 0 0 0 .04.421z" class="cls-2" transform="translate(-23.521 -13.405)"/><path id="Path_811" d="M120.459 52v.048c0 .052-.008-.048 0-.048z" class="cls-2" transform="translate(-26.893 -10.776)"/><path id="Path_812" d="M121.6 84.67c-.111-.079-.246-.119-.31-.27v.35c.143.031.27.19.31-.08z" class="cls-2" transform="translate(-27.064 -17.426)"/><path id="Path_813" d="M122.313 42.418c0-.151.072-.175.064-.31-.334-.056-.485-.334-.636-.628-.326.111-.437.5-.795.628-.23 0-.278-.246-.461-.318.143.35-.1.509-.175.795a1.391 1.391 0 0 1 1.1.079c-.1.048 0 .374-.119.389s-.223-.159-.405-.151c.135.262.2.62.461.707 0-.262.072-.381.23-.4.127.31-.056.715 0 .962l.509-.31a3.29 3.29 0 0 0 0-.962c-.254-.111-.151.262-.35.23.044-.544.338-.743.577-.711z" class="cls-2" transform="translate(-26.863 -8.617)"/><path id="Path_814" d="M120.052 42.967c0-.286-.079-.421-.286-.4a.421.421 0 0 1-.056.238c.183-.037.135.241.342.162z" class="cls-2" transform="translate(-26.74 -8.84)"/><path id="Path_815" d="M122.594 40.635a1.646 1.646 0 0 0-.175-.175l-.2.119c.104.072.287.255.375.056z" class="cls-2" transform="translate(-27.255 -8.408)"/><path id="Path_816" d="M113.1 75.846a.644.644 0 0 0 0-.286h-.2c.008.167.079.294.2.286z" class="cls-2" transform="translate(-25.342 -15.612)"/><path id="Path_817" d="M113.379 65.22h-.119v.08a.175.175 0 0 0 .119-.08z" class="cls-2" transform="translate(-25.416 -13.489)"/><path id="Path_818" d="M114.106 65.588a.183.183 0 0 1 .175-.159 1.272 1.272 0 0 0-.1-.389l-.445.087c.091.159.282.183.37.461z" class="cls-2" transform="translate(-25.514 -13.452)"/><path id="Path_819" d="M114.912 65.556a.294.294 0 0 0-.294-.127c-.167.707.143 1.272.525 1.184a3.607 3.607 0 0 0-.087-.795c.15-.127-.033-.357-.144-.262z" class="cls-2" transform="translate(-25.685 -13.531)"/><path id="Path_820" d="M90.134 68.66h-.064z" class="cls-2" transform="translate(-20.656 -14.195)"/><path id="Path_821" d="M66.164 74.471a.207.207 0 0 0 .215-.191c0-.286-.318-.223-.525-.27l-.215.159a.413.413 0 0 0 0 .111l.23.1c0 .175 0 .381.056.421.075-.101.215-.123.239-.33z" class="cls-2" transform="translate(-15.641 -15.294)"/><path id="Path_822" d="M129.59 48.838c.246-.072.612-.795.2-.938a1.049 1.049 0 0 0-.2.938z" class="cls-2" transform="translate(-28.76 -9.935)"/><path id="Path_823" d="M130.283 51.06c-.143 0-.183.1-.183.278h.223a.262.262 0 0 0-.04-.278z" class="cls-2" transform="translate(-28.872 -10.583)"/><path id="Path_824" d="M125.786 69.377c.183.342.286.6-.167.795a1.288 1.288 0 0 1-.739 1.319c-.151.207.087.159.056.437-.079.119-.262.087-.429.079 0 .294-.238.318-.246.62.636.445 1.216-.54.93-1.136.334 0 .2-.318.493-.262 0-.795.612-1.121.993-.89 0-.1 0-.238.064-.254.056-.278-.2-.119-.191-.35.127 0 .087-.246.254-.175s.159.35.437.262c.064-.358-.1-.612.04-.922a14.343 14.343 0 0 0-1.495.477z" class="cls-2" transform="translate(-27.673 -14.245)"/><path id="Path_825" d="M126.52 73v.1h.087a.127.127 0 0 0-.087-.1z" class="cls-2" transform="translate(-28.137 -15.086)"/><path id="Path_826" d="M128 72.279h.1l.532-.159a1.359 1.359 0 0 0 .056-.58c-.288.183-.426.54-.688.739z" class="cls-2" transform="translate(-28.441 -14.787)"/></g></g></g></g></g></svg>