<?xml version="1.0" encoding="utf-8"?>
<!-- Generator: Adobe Illustrator 23.0.1, SVG Export Plug-In . SVG Version: 6.00 Build 0)  -->
<svg version="1.1" id="Layer_1" xmlns="http://www.w3.org/2000/svg" xmlns:xlink="http://www.w3.org/1999/xlink" x="0px" y="0px"
	 viewBox="0 0 600 148.2" style="enable-background:new 0 0 600 148.2;" xml:space="preserve">
<style type="text/css">
	.st0{fill:url(#SVGID_1_);}
</style>
<linearGradient id="SVGID_1_" gradientUnits="userSpaceOnUse" x1="9.8726" y1="111.3106" x2="138.5437" y2="37.0223">
	<stop  offset="0" style="stop-color:#057472"/>
	<stop  offset="0.4" style="stop-color:#4FB645"/>
</linearGradient>
<path class="st0" d="M10.9,35.4C21.1,18.6,38,6,58.8,1.5c20.4-4.3,41.8,0.7,57.9,11.5c-3.6,1.6-16.4-5.5-25.2,20.5
	c-5.3,15.8-18.8,19-37.8,5.2C27,19.4,17.1,38.4,10.9,35.4 M39.7,72.8c-4.6-7.9-6.7-14-12.5-19.5c-5.6-5.2-14.1-5-19-0.8
	C-1.1,60.4-1.4,78.1,2,91.9c9.9,39.7,50.3,64.2,90.1,54.3c39.8-9.9,63.9-50.1,54.1-89.9c-2.8-11.2-7.7-21.5-13.7-26.8
	c-9.6-8.4-17-2.9-19.5,4.4c-4.5,13-2.7,36-11.4,50.2C86.5,108.7,54.1,97.6,39.7,72.8"/>
<path fill="white" d="M479.2,105.3l19.1,0c9.2,0,15.4-4.8,15.4-15c0-8.3-7.5-14.9-17.3-14.9l-17.2,0V105.3z M479.3,68.5h16.4
	c9,0,15.8-6.1,15.8-13.9c0-8.8-4.8-14-13.8-14h-18.4V68.5z M498.1,112.4h-24.7c-0.7,0-1.3-0.6-1.3-1.3V39.5c0-2.9,2.3-5.2,5.2-5.2
	h20.1c12.2,0,20.8,7.9,20.8,20.7c0,6.7-3.3,12.6-9,16.5c6.7,3.9,11.2,10.6,11.2,18.7C520.5,103.9,511.5,112.4,498.1,112.4
	 M229.4,96.8c0,0,0.8-2.8,1.4-4.1l22.9-53.6c1.7-3.8,3.3-4.9,5.5-4.9h2.6c0.1,0,0.2,0.1,0.2,0.2l3.6,77.6c0,0.2-0.1,0.3-0.3,0.3
	l-6.9,0c-0.2,0-0.3-0.1-0.4-0.3l-2.4-53.6c-0.1-1.9-0.1-5.8-0.1-5.8s-1.3,4-2.1,5.8l-23.1,53.2c-0.4,0.9-1.6,0.9-2,0l-23.1-53.2
	c-0.7-1.8-2.1-5.8-2.1-5.8s0,3.9-0.1,5.8l-2.4,53.6c0,0.2-0.2,0.3-0.3,0.3l-6.9,0c-0.2,0-0.3-0.1-0.3-0.3l3.6-77.6
	c0-0.1,0.1-0.2,0.2-0.2h2.6c2.1,0,3.8,1.1,5.5,4.9L228,92.7C228.6,94,229.4,96.8,229.4,96.8 M407.4,96.8c0,0,0.8-2.8,1.4-4.1
	l22.9-53.6c1.7-3.8,3.3-4.9,5.5-4.9h2.6c0.1,0,0.2,0.1,0.2,0.2l3.6,77.6c0,0.2-0.2,0.4-0.4,0.4l-6.8,0c-0.2,0-0.3-0.1-0.3-0.3
	l-2.4-53.6c-0.1-1.9-0.1-5.8-0.1-5.8s-1.3,4-2.1,5.8l-23.1,53.2c-0.4,0.9-1.6,0.9-2,0l-23.1-53.2c-0.7-1.8-2.1-5.8-2.1-5.8
	s0,3.9-0.1,5.8l-2.4,53.6c0,0.2-0.1,0.3-0.3,0.3l-6.9,0c-0.2,0-0.3-0.1-0.3-0.3l3.6-77.6c0-0.1,0.1-0.2,0.2-0.2h2.6
	c2.1,0,3.8,1.1,5.5,4.9L406,92.7C406.5,94,407.4,96.8,407.4,96.8 M303.2,84.2l-6.6,27.9c0,0.2-0.2,0.3-0.3,0.3h-6.9
	c-0.2,0-0.4-0.2-0.3-0.4l15.3-65.1c1.9-8.3,7.4-12.6,14.1-12.6l0.4,0c6.6,0.2,11.9,4.4,13.7,12.6l15.3,65.1c0.1,0.2-0.1,0.4-0.3,0.4
	l-6.8,0c-0.2,0-0.3-0.1-0.3-0.3l-6.7-28H303.2z M305,76.5h27.1l-6.7-28.9c-1-4-3.4-5.9-6.5-6l-0.3,0c-3.2,0-5.8,1.9-6.8,6L305,76.5z
	 M546.8,86l0.1-51.6c0-0.1,0.1-0.2,0.2-0.2c1.2-0.1,7.3-0.3,7.3,6.9v45c0,10.1,6.1,19.3,19.1,19.3c12.9,0,19.1-9.2,19.1-19.3v-45
	c0-7.2,6.1-7,7.3-6.9c0.1,0,0.2,0.1,0.2,0.2L600,86c0,15.6-9.6,26.6-26.6,26.6C556.4,112.6,546.8,101.6,546.8,86"/>
</svg>
