<svg width="536" height="149.004" viewBox="0 0 536 149.004"><defs><filter id="a" width="536" height="149.004" x="0" y="0" filterUnits="userSpaceOnUse"><feOffset dx="9" dy="9"/><feGaussianBlur result="blur" stdDeviation="1"/><feFlood flood-opacity=".271"/><feComposite in2="blur" operator="in"/><feComposite in="SourceGraphic"/></filter><filter id="b" width="509.002" height="135" x="8" y=".004" filterUnits="userSpaceOnUse"><feOffset dy="3"/><feGaussianBlur result="blur-2" stdDeviation="1"/><feFlood flood-opacity=".271"/><feComposite in2="blur-2" operator="in"/><feComposite in="SourceGraphic"/></filter><linearGradient id="c" x2="1" y1=".5" y2=".5" gradientUnits="objectBoundingBox"><stop offset=".3" stop-color="#bbbebf"/><stop offset=".31" stop-color="#bec0c1"/><stop offset=".37" stop-color="#dadcdc"/><stop offset=".43" stop-color="#ebecec"/><stop offset=".47" stop-color="#f1f2f2"/></linearGradient><linearGradient id="d" x2="1" y1=".5" y2=".5" gradientUnits="objectBoundingBox"><stop offset=".56" stop-color="#bbbebf"/><stop offset=".56" stop-color="#bec0c1"/><stop offset=".64" stop-color="#dadcdc"/><stop offset=".7" stop-color="#ebecec"/><stop offset=".75" stop-color="#f1f2f2"/></linearGradient></defs><g filter="url(#a)" transform="translate(0 .004)"><path fill="#fdf9cb" d="M520.986.1L4.145 0l26.334 64.529L-.003 137h524l-29.111-72z"/></g><g filter="url(#b)" transform="translate(0 .004)"><path fill="#193c46" d="M514 0H11l26 65-26 64h503l-25.456-64z"/></g><path fill="url(#c)" d="M0 0h25.29v11.076H0z" transform="translate(182.493 48.698)"/><path fill="url(#d)" d="M0 0h25.29v11.076H0z" transform="translate(175.66 62.582)"/><path fill="#f1f2f2" d="M174.917 48.646v33.878c1.383 1.641 2.777 3.283 4.129 4.934h11.241V48.646z"/><path fill="#bbbebf" d="M174.917 82.525l4.16 4.934.031-5.13z"/><path fill="#f1f2f2" d="M230.493 58.35v-9.858h-18.58v9.879c3.943-.021 16.309-.029 18.58-.021z"/><path fill="#f1f2f2" d="M211.954 48.492v34.271l5.006 5h13.533v-39.23c-2.436-.031-13.047-.02-18.539-.041z"/><path fill="#bbbebf" d="M211.954 82.762l5.006 5 .041-5.192z"/><path fill="#f1f2f2" d="M255.008 58.391v-9.858h-18.58v9.879c3.953-.021 16.279-.021 18.58-.021z"/><path fill="#f1f2f2" d="M236.48 48.533v34.271l5.006 5.006h13.522V48.585c-2.425-.042-13.036-.021-18.528-.052z"/><path fill="#bbbebf" d="M236.47 82.807l5.017 5.006.041-5.2z"/><path fill="none" d="M294.617 74.029a5.781 5.781 0 0 0 5.75-5.161h-11.531a5.791 5.791 0 0 0 5.781 5.161z"/><path fill="#2ca8e0" d="M308.448 74.06l-8.444-2.168a5.791 5.791 0 0 1-11.169-2.869l-12.387-3.19a18.756 18.756 0 0 0 34.777 13.017z"/><path fill="#1e75bb" d="M294.616 62.447a5.79 5.79 0 0 1 5.016 2.9q6.876-.06 13.75-.061a18.756 18.756 0 0 0-37.3 2.87v.7h12.755v-.619a5.791 5.791 0 0 1 5.781-5.791z"/><path fill="#fff" d="M308.469 74.06l-.65 3.9 3.479.888z"/><path fill="none" d="M334.585 73.864a5.8 5.8 0 0 0 5.76-5.161h-11.51a5.791 5.791 0 0 0 5.75 5.161z"/><path fill="#2ca8e0" d="M349.325 69.395h-8.722a5.791 5.791 0 0 1-11.52 0h-12.759a18.766 18.766 0 0 0 36.934 3.933c-.929-.939 2.384-5.781-3.933-3.933z"/><path fill="#1e75bb" d="M334.822 50.226a18.766 18.766 0 0 0-18.766 18.77v.692h12.769a3.981 3.981 0 0 1 0-.619 5.791 5.791 0 1 1 11.582 0 5.956 5.956 0 0 1 0 .619h13.223v-.692a18.766 18.766 0 0 0-18.808-18.77z"/><path fill="none" d="M380.416 68.744a6.957 6.957 0 0 0-6.194-6.926v13.84a6.947 6.947 0 0 0 6.194-6.914z"/><path fill="#1e75bb" d="M371.891 50.773a13.191 13.191 0 0 0-1.693.072v10.973a6.957 6.957 0 0 1 0 13.842v11.18c.557 0 1.125.083 1.693.083a18.085 18.085 0 0 0 0-36.129z"/><path fill="#2ca8e0" d="M358.131 50.773v31.556c1.228 1.538 2.446 3.1 3.654 4.614h9.868v-36.13z"/><path fill="#fff" d="M358.131 82.453l3.664 4.6.021-4.79z"/><path fill="#1e75bb" d="M402.744 50.628h23.783v10.415h-23.783zm.382 26.044h23.783v10.415h-23.783zm-6.792-12.986h23.783v10.415h-23.783z"/><path fill="#2ca8e0" d="M395.25 50.608v31.824l3.91 4.645h10.56V50.608z"/><path fill="#fff" d="M395.24 82.432l3.92 4.645.021-4.831z"/><path fill="#2ca8e0" d="M145.756 49.152l-6.978-4.026v.052a1.837 1.837 0 0 1-1.579.908 1.858 1.858 0 0 1-.919-.248l-15.794-9.179a4.346 4.346 0 0 0-3.654 0l-9.528 5.512a1.848 1.848 0 0 1-2.5-.671l-13.272 7.659a6.111 6.111 0 0 0-2.746 4.759V82.05a6.111 6.111 0 0 0 2.746 4.748l6.255 3.613v-.072a1.817 1.817 0 0 1 2.5-.65l16.516 9.6a4.346 4.346 0 0 0 3.654 0l9.528-5.5a1.827 1.827 0 0 1 2.5.671l13.271-7.621a6.111 6.111 0 0 0 2.746-4.748V53.91a6.111 6.111 0 0 0-2.746-4.759z"/><path fill="#1e75bb" d="M148.45 66.772a1.827 1.827 0 0 1-1.827-1.827v-11a4.3 4.3 0 0 0-1.827-3.169l-9.455-5.523a1.827 1.827 0 1 1 1.827-3.159l9.517 5.523a7.835 7.835 0 0 1 3.654 6.328v11a1.827 1.827 0 0 1-1.889 1.827zm-29.811-30.513a3.768 3.768 0 0 0-1.806.4l-9.528 5.512a1.848 1.848 0 0 1-2.5-.671l-13.273 7.659a6.111 6.111 0 0 0-2.746 4.759V82.05a6.111 6.111 0 0 0 2.746 4.748l6.255 3.613v-.072a1.817 1.817 0 0 1 2.5-.65l16.516 9.6a3.85 3.85 0 0 0 1.827.4z"/><text fill="#221f1f" font-family="Helvetica" font-size="47" transform="translate(98.871 81.561)"><tspan x="0" y="0">{</tspan></text><text fill="#221f1f" font-family="Helvetica" font-size="47" transform="translate(121.395 81.561)"><tspan x="0" y="0">}</tspan></text><path fill="#2ca8e0" d="M101.018 94.065a1.858 1.858 0 0 1-.919-.248l-9.455-5.512A7.855 7.855 0 0 1 87 81.967v-11a1.817 1.817 0 0 1 1.83-1.82 1.827 1.827 0 0 1 1.817 1.827v11a4.315 4.315 0 0 0 1.817 3.179l9.517 5.523a1.827 1.827 0 0 1-.919 3.406z"/><text fill="#f1f2f2" font-family="Helvetica" font-size="47" transform="translate(100.11 81.004)"><tspan x="0" y="0">{</tspan></text><text fill="#f1f2f2" font-family="Helvetica" font-size="47" transform="translate(122.633 81.004)"><tspan x="0" y="0">}</tspan></text><g fill="none" stroke-dasharray="4"><path d="M505.961 5.004H18.025l25.221 60.107-25.221 59.182h487.936l-24.7-59.182z"/><path fill="#fff" d="M18.025 5.004h4v2h-2.318l-.717.3-.126-.3-.839-2zm8 0h4v2h-4v-2zm8 0h4v2h-4v-2zm8 0h4v2h-4v-2zm8 0h4v2h-4v-2zm8 0h4v2h-4v-2zm8 0h4v2h-4v-2zm8 0h4v2h-4v-2zm8 0h4v2h-4v-2zm8 0h4v2h-4v-2zm8 0h4v2h-4v-2zm8 0h4v2h-4v-2zm8 0h4v2h-4v-2zm8 0h4v2h-4v-2zm8 0h4v2h-4v-2zm8 0h4v2h-4v-2zm8 0h4v2h-4v-2zm8 0h4v2h-4v-2zm8 0h4v2h-4v-2zm8 0h4v2h-4v-2zm8 0h4v2h-4v-2zm8 0h4v2h-4v-2zm8 0h4v2h-4v-2zm8 0h4v2h-4v-2zm8 0h4v2h-4v-2zm8 0h4v2h-4v-2zm8 0h4v2h-4v-2zm8 0h4v2h-4v-2zm8 0h4v2h-4v-2zm8 0h4v2h-4v-2zm8 0h4v2h-4v-2zm8 0h4v2h-4v-2zm8 0h4v2h-4v-2zm8 0h4v2h-4v-2zm8 0h4v2h-4v-2zm8 0h4v2h-4v-2zm8 0h4v2h-4v-2zm8 0h4v2h-4v-2zm8 0h4v2h-4v-2zm8 0h4v2h-4v-2zm8 0h4v2h-4v-2zm8 0h4v2h-4v-2zm8 0h4v2h-4v-2zm8 0h4v2h-4v-2zm8 0h4v2h-4v-2zm8 0h4v2h-4v-2zm8 0h4v2h-4v-2zm8 0h4v2h-4v-2zm8 0h4v2h-4v-2zm8 0h4v2h-4v-2zm8 0h4v2h-4v-2zm8 0h4v2h-4v-2zm8 0h4v2h-4v-2zm8 0h4v2h-4v-2zm8 0h4v2h-4v-2zm8 0h4v2h-4v-2zm8 0h4v2h-4v-2zm8 0h4v2h-4v-2zm8 0h4v2h-4v-2zm8 0h4v2h-4v-2zm8 0h4v2h-4v-2zm5.773 0h1.993l.145.06-1.52 3.7-1.85-.76 1.232-3zm-2.752 6.7l1.85.76-1.52 3.7-1.85-.76 1.52-3.7zm-3.04 7.4l1.85.76-1.1 2.678-.002.003-.001.003-.007.016-.01.027h-.001l-.005.012-.02.048-.005.013-.37.9-1.85-.761 1.52-3.7zm-3.04 7.399l1.85.76-1.52 3.7-1.85-.76 1.52-3.7zm-3.04 7.4l1.85.76-.71 1.728-.81 1.972-1.85-.76 1.52-3.7zm-3.04 7.4l1.849.76-1.52 3.7-1.85-.76 1.52-3.7zm-3.041 7.4l1.85.76-.026.062-.01.023v.003l-.003.006-.002.004v.003l-.007.015-.004.01a.13.13 0 0 0-.001.003l-.005.011-.003.008-.001.002-.001.002-.01.026-.009.02-1.438 3.501-1.85-.76 1.52-3.7zm-3.04 7.4l1.85.76-1.52 3.699-1.85-.76 1.52-3.7zm-3.04 7.399l1.85.76-.35.849.006.013v.002l.045.106.001.003.011.027.002.004.013.03v.002l.031.074.002.003.005.014.009.02v.002l.002.004.005.01v.001l.016.04.007.014.001.004.009.021v.002l.004.008.003.008.002.003.003.007v.001l.005.012.01.023.001.004.005.012.003.006.003.007v.002l.005.01.003.008.002.003a.23.23 0 0 0 .001.004v.001l.003.006v.001l.003.007.012.029v.001l.003.005v.002l.003.006.004.01a.6.6 0 0 0 .003.006v.002l.003.006.003.005.001.004.002.005.003.007.003.007.002.005.002.004.001.004.002.003.001.003.001.004.002.005.001.002.002.003.004.01.002.006.001.002.004.009.003.006.005.012v.002l.005.012.002.004.003.008.005.012.003.006.001.003.011.026.004.01.01.022v.001l.002.006.003.007.006.015.002.005.006.013.05.12v.001l.005.01.002.006.773 1.853-1.845.77-1.187-2.844-.32-.764.316-.766.348-.85zm4.228 8.145l1.54 3.691-1.846.77-1.54-3.69 1.846-.771zm3.08 7.383l1.541 3.691-1.846.77-1.54-3.69 1.846-.771zm3.081 7.383l1.54 3.691-1.845.77-1.54-3.69 1.845-.771zm3.081 7.383l1.54 3.691-1.845.77-1.54-3.69 1.845-.771zm3.08 7.383l1.541 3.691-1.846.77-1.54-3.69 1.846-.771zm3.082 7.383l1.54 3.692-1.846.77-1.54-3.692 1.846-.77zm3.08 7.383l1.54 3.692-1.845.77-1.54-3.692 1.845-.77zm.53 6.348h2.12l.834 2h-2.955v-2zm-8 0h4v2h-4v-2zm-8 0h4v2h-4v-2zm-8 0h4v2h-4v-2zm-8 0h4v2h-4v-2zm-8 0h4v2h-4v-2zm-8 0h4v2h-4v-2zm-8 0h4v2h-4v-2zm-8 0h4v2h-4v-2zm-8 0h4v2h-4v-2zm-8 0h4v2h-4v-2zm-8 0h4v2h-4v-2zm-8 0h4v2h-4v-2zm-8 0h4v2h-4v-2zm-8 0h4v2h-4v-2zm-8 0h4v2h-4v-2zm-8 0h4v2h-4v-2zm-8 0h4v2h-4v-2zm-8 0h4v2h-4v-2zm-8 0h4v2h-4v-2zm-8 0h4v2h-4v-2zm-8 0h4v2h-4v-2zm-8 0h4v2h-4v-2zm-8 0h4v2h-4v-2zm-8 0h4v2h-4v-2zm-8 0h4v2h-4v-2zm-8 0h4v2h-4v-2zm-8 0h4v2h-4v-2zm-8 0h4v2h-4v-2zm-8 0h4v2h-4v-2zm-8 0h4v2h-4v-2zm-8 0h4v2h-4v-2zm-8 0h4v2h-4v-2zm-8 0h4v2h-4v-2zm-8 0h4v2h-4v-2zm-8 0h4v2h-4v-2zm-8 0h4v2h-4v-2zm-8 0h4v2h-4v-2zm-8 0h4v2h-4v-2zm-8 0h4v2h-4v-2zm-8 0h4v2h-4v-2zm-8 0h4v2h-4v-2zm-8 0h4v2h-4v-2zm-8 0h4v2h-4v-2zm-8 0h4v2h-4v-2zm-8 0h4v2h-4v-2zm-8 0h4v2h-4v-2zm-8 0h4v2h-4v-2zm-8 0h4v2h-4v-2zm-8 0h4v2h-4v-2zm-8 0h4v2h-4v-2zm-8 0h4v2h-4v-2zm-8 0h4v2h-4v-2zm-8 0h4v2h-4v-2zm-8 0h4v2h-4v-2zm-8 0h4v2h-4v-2zm-8 0h4v2h-4v-2zm-8 0h4v2h-4v-2zm-8 0h4v2h-4v-2zm-8 0h4v2h-4v-2zm-8 0h4v2h-4v-2zm-3.796-.779l1.84.784-.85 1.995h-2.174l1.184-2.779zm3.136-7.36l1.84.785-1.568 3.68-1.84-.785.889-2.085.679-1.594zm3.136-7.36l1.84.785-1.568 3.68-1.84-.784 1.568-3.68zm3.136-7.359l1.84.784-1.568 3.68-1.84-.784.622-1.46.946-2.22zm3.137-7.36l1.84.785-1.569 3.68-1.84-.785 1.569-3.68zm3.136-7.359l1.84.784-1.568 3.68-1.84-.784.854-2.005.01-.022v-.003l.704-1.65zm3.136-7.36l1.84.784-1.568 3.68-1.84-.784 1.568-3.68zm3.136-7.36l1.84.785-1.568 3.68-1.84-.784 1.568-3.68zm2.886-8.139l1.04 2.48.328.78-.332.778-.514 1.206-1.84-.784.514-1.206-1.04-2.48 1.844-.774zm-3.095-7.376l1.547 3.688-1.844.774-1.548-3.689 1.845-.773zm-3.096-7.377l1.548 3.688-1.844.774-.754-1.796-.794-1.893 1.844-.773zm-3.095-7.377l1.548 3.688-1.845.774-1.547-3.688 1.844-.774zm-3.096-7.377l1.548 3.688-1.844.774-.277-.66-1.27-3.028 1.843-.774zm-3.095-7.377l1.548 3.688-1.844.774-.98-2.334-.003-.006v-.001l-.565-1.347 1.844-.774zm-3.095-7.377l1.547 3.689-1.844.773-1.548-3.688 1.845-.774zm-3.096-7.377l1.548 3.689-1.844.774-1.548-3.689 1.844-.774z"/></g></svg>