<svg xmlns="http://www.w3.org/2000/svg" width="333.352" height="60" viewBox="0 0 333.352 60"><defs><style>.a{fill:#2f3490;}.b{fill:none;}.c,.e{fill:#e4e2c5;}.d,.e{stroke:none;}</style></defs><g transform="translate(-1588.648 -474)"><path class="a" d="M-8.584,0H295.54V60H-8.584L-35.812,30.076Z" transform="translate(1624.46 474)"/><g class="b" transform="translate(1626.46 478)"><path class="d" d="M-8.584,0H295.54V52H-8.584L-31.426,25.927Z"/><path class="e" d="M -7.68023681640625 1.999996185302734 L -28.76358032226563 25.93048477172852 L -7.676910400390625 50 L 293.5400695800781 50 L 293.5400695800781 1.999996185302734 L -7.68023681640625 1.999996185302734 M -8.58367919921875 -3.814697265625e-06 L 295.5400695800781 -3.814697265625e-06 L 295.5400695800781 52 L -8.58367919921875 52 L -31.42578125 25.92674827575684 L -8.58367919921875 -3.814697265625e-06 Z"/></g><path class="c" d="M26.6.443,24.935,3.827,21.2,4.372a.818.818,0,0,0-.452,1.4l2.7,2.633L22.81,12.12A.818.818,0,0,0,24,12.981l3.341-1.756,3.341,1.756a.818.818,0,0,0,1.186-.861L31.225,8.4l2.7-2.633a.818.818,0,0,0-.452-1.4L29.74,3.827,28.071.443A.819.819,0,0,0,26.6.443Z" transform="translate(1600.154 497.791)"/></g></svg>